<svg id="Layer_3" data-name="Layer 3" xmlns="http://www.w3.org/2000/svg" viewBox="0 0 138.8 17"><defs><style>.cls-1{fill:#fff;}.cls-2{fill:#ffbcf4;fill-rule:evenodd;}</style></defs><path class="cls-1" d="M9.3,10.75a2.68,2.68,0,0,1,1.2.9,2.32,2.32,0,0,1,.4,1.4,3,3,0,0,1-1.1,2.5,6.48,6.48,0,0,1-3.5.8H.3c-.1,0-.1,0-.2-.1A.39.39,0,0,1,0,16c0-.1,0-.2.1-.2a.35.35,0,0,1,.2-.1,3.12,3.12,0,0,0,1-.2c.3-.1.4-.2.4-.4V6.55a.67.67,0,0,0-.64-.7H1c-.2,0-.4-.1-.7-.1-.1,0-.2,0-.2-.1a.35.35,0,0,1-.1-.2.37.37,0,0,1,.1-.3c0-.1.1-.1.2-.1H5.8a6.77,6.77,0,0,1,3.2.6,2,2,0,0,1,1.1,1.9A3.28,3.28,0,0,1,9.8,9a2,2,0,0,1-.9.9,2.63,2.63,0,0,1-1.4.54A7.89,7.89,0,0,1,9.3,10.75Zm-4.9-.7h.7a2.85,2.85,0,0,0,1.7-.5A1.74,1.74,0,0,0,7.5,8c0-1.3-.7-2-2.2-2H4.4Zm2.9,5a2.47,2.47,0,0,0,.7-2,2.56,2.56,0,0,0-.5-1.6,2.11,2.11,0,0,0-1-.6,6,6,0,0,0-1.4-.1H4.4v4.64c0,.1.1.1.3.2a2.29,2.29,0,0,0,.9.1A2.48,2.48,0,0,0,7.3,15.05Z" transform="translate(0 0)"/><path class="cls-1" d="M12.6,13a3.77,3.77,0,0,1,1.8-.8,15,15,0,0,1,2.4-.4V10.39a1.34,1.34,0,0,0-.3-1,1.19,1.19,0,0,0-.9-.3c-.5,0-.8,0-.9.1l-1.2,2.2a1.2,1.2,0,0,1-1.3-1.09h0a1.39,1.39,0,0,1,.6-1.1,3.4,3.4,0,0,1,1.5-.6A9.74,9.74,0,0,1,16,8.4a5.11,5.11,0,0,1,1.9.3,1.93,1.93,0,0,1,1.1.8,2.16,2.16,0,0,1,.4,1.1v4.2a.74.74,0,0,0,.1.5c.1.1.1.2.2.2a.79.79,0,0,0,.4-.1h.2c.1,0,.1,0,.2.1a.37.37,0,0,1,.1.3v.1c-.1.1-.2.1-.5.2a1.86,1.86,0,0,1-.8.2,3.7,3.7,0,0,1-1.1.1,2,2,0,0,1-.9-.2.56.56,0,0,1-.3-.4v-.5h0a2.46,2.46,0,0,1-1.2.8,4.17,4.17,0,0,1-1.6.3,4.63,4.63,0,0,1-1.1-.2,1.54,1.54,0,0,1-.9-.7,2.16,2.16,0,0,1-.4-1.2A1.86,1.86,0,0,1,12.6,13Zm2.2,2.2a1,1,0,0,0,.8.3,1.75,1.75,0,0,0,1.3-.6V12.39l-1.2.3a1.56,1.56,0,0,0-.8.6,2.11,2.11,0,0,0-.3,1.2.63.63,0,0,0,.2.66Z" transform="translate(0 0)"/><path class="cls-1" d="M21,16.39c0-.1-.1-.1-.1-.2s0-.2.1-.2a.35.35,0,0,1,.2-.1c.3,0,.5-.1.7-.1a.32.32,0,0,0,.3-.3v-5.1a1.23,1.23,0,0,0-.1-.6l-.3-.3a2.08,2.08,0,0,0-.7-.1h-.2a.09.09,0,0,1-.1-.08v0h0v-.2c0-.1,0-.1.1-.2a.09.09,0,0,1,.08-.1h0c1,0,2-.1,3.1-.1h.2c.1,0,.1,0,.1.1s.1.1.1.2v1.6a5.79,5.79,0,0,1,.7-1,4,4,0,0,1,1-.8,2.63,2.63,0,0,1,1.2-.3,1,1,0,0,1,1,.4,1.68,1.68,0,0,1,.3,1,1.32,1.32,0,0,1-.2.7,2.62,2.62,0,0,1-.5.6.63.63,0,0,1-.5.2l-1.2-1.5a1.6,1.6,0,0,0-1,.5,5.13,5.13,0,0,0-.8,1.2v3.5a.52.52,0,0,0,.2.4.76.76,0,0,0,.4.2,5.36,5.36,0,0,0,.7.1H26c.1,0,.2,0,.2.1a.35.35,0,0,1,.1.2c0,.1,0,.1-.1.2s-.1.1-.2.1H21.2a.13.13,0,0,1-.18,0Z" transform="translate(0 0)"/><path class="cls-1" d="M30.5,16.25a1.66,1.66,0,0,1-.7-1.6V9.45H29c-.1,0-.1,0-.1-.1a.35.35,0,0,0-.1-.2c0-.1,0-.2.1-.2a.09.09,0,0,1,.08-.1h0l1-.3a.56.56,0,0,0,.4-.3,1.64,1.64,0,0,0,.4-.7c.1-.3.2-.6.3-1q0-.3.6-.3t.6.3v2.2H34c.1,0,.1,0,.1.1s.1.1.1.2a.63.63,0,0,1-.1.4.22.22,0,0,1-.2.2H32.2v4.5a2.8,2.8,0,0,0,.1,1,.7.7,0,0,0,.2.5.63.63,0,0,0,.4.1,1.23,1.23,0,0,0,.6-.1c.2-.1.5-.2.7-.3a.09.09,0,0,1,.1.08v0a.37.37,0,0,1,.1.3V16a1.44,1.44,0,0,1-.6.4,3.18,3.18,0,0,1-.9.3,2.41,2.41,0,0,1-.8.1A6.06,6.06,0,0,1,30.5,16.25Z" transform="translate(0 0)"/><path class="cls-1" d="M36.1,15.55a4.31,4.31,0,0,1-1.1-3.1,4,4,0,0,1,.6-2.2,3.62,3.62,0,0,1,1.6-1.4,5.4,5.4,0,0,1,2.2-.5,3.83,3.83,0,0,1,2.6.7,3.33,3.33,0,0,1,1.1,2c0,.3.1.7.1,1.3H37.7a3.57,3.57,0,0,0,.4,1.9,1.77,1.77,0,0,0,.9,1,2.63,2.63,0,0,0,1.2.3,3.78,3.78,0,0,0,1.2-.2,2.37,2.37,0,0,0,.9-.6v-.1l.1-.1c.1-.1.1,0,.1,0l.3.2a.09.09,0,0,1,.1.08V15a3.45,3.45,0,0,1-1.2,1.2,4.06,4.06,0,0,1-2,.4A4.74,4.74,0,0,1,36.1,15.55Zm4.2-5.9a1,1,0,0,0-.9-.6,1.39,1.39,0,0,0-1.1.6,4.28,4.28,0,0,0-.6,2h2.8A3.9,3.9,0,0,0,40.3,9.65Z" transform="translate(0 0)"/><path class="cls-1" d="M44,16.39c0-.1-.1-.1-.1-.2s0-.2.1-.2a.35.35,0,0,1,.2-.1c.6-.1.8-.2.8-.5v-5a1.23,1.23,0,0,0-.1-.6c-.1-.2-.2-.2-.3-.3a4,4,0,0,0-.5-.1h-.3a.09.09,0,0,1-.1-.08V9.09c0-.1,0-.1.1-.2a.09.09,0,0,1,.08-.1h0c1.2-.1,2.3-.1,3.3-.1.1,0,.1,0,.2.1s.1.1.1.2v.9a2.3,2.3,0,0,1,.7-.5,6.72,6.72,0,0,1,1.2-.6,3,3,0,0,1,1.3-.2,3.6,3.6,0,0,1,1.9.5,2.1,2.1,0,0,1,.7,1.9v4.3a.87.87,0,0,0,.2.6c.1.1.3.1.5.2s.3,0,.3,0,.2,0,.2.1a.35.35,0,0,1,.1.2c0,.1,0,.1-.1.2s-.1.1-.2.1H50.1c-.1,0-.2,0-.2-.1s-.1-.1-.1-.2v-.2a.35.35,0,0,1,.2-.1.7.7,0,0,0,.5-.2c.2-.1.2-.2.2-.3v-5.1c0-.2-.1-.3-.3-.4a1,1,0,0,0-.6-.2,2.41,2.41,0,0,0-.8.2,3,3,0,0,0-.8.4c-.2.2-.4.3-.5.5v4.4a.74.74,0,0,0,.1.5c.1.1.2.2.3.2s.3.1.4.1.2,0,.2.1a.35.35,0,0,1,.1.2c0,.1,0,.1-.1.2s-.1.1-.2.1H44.4Z" transform="translate(0 0)"/><path class="cls-1" d="M56.4,16.05a3.17,3.17,0,0,1-1.1-1.5,6.52,6.52,0,0,1-.4-2.1,4.49,4.49,0,0,1,.5-2A4.14,4.14,0,0,1,56.8,9,3.79,3.79,0,0,1,59,8.4a3.7,3.7,0,0,1,1.1.1,7.19,7.19,0,0,1,1,.4L61,7.65V5.85a.67.67,0,0,0-.4-.7,11.69,11.69,0,0,0-1.2-.3.09.09,0,0,1-.1-.08V4.55c0-.1,0-.1.1-.2a.09.09,0,0,1,.08-.1h0a28.43,28.43,0,0,1,3.2-.1h.7c.1,0,.1,0,.2.1s.1.1.1.2V15a.74.74,0,0,0,.1.5c.1.1.2.2.3.2s.3.1.4.1.2,0,.2.1a.35.35,0,0,1,.1.2c0,.1,0,.1-.1.2s-.2.2-.3.2H61.7c-.2,0-.3,0-.4-.1l-.2-.2v-.5a3.12,3.12,0,0,1-1.1.8,3.9,3.9,0,0,1-1.5.3A4.3,4.3,0,0,1,56.4,16.05Zm4-.8a1,1,0,0,0,.6-.5v-4.7a.56.56,0,0,0-.3-.4c-.2-.1-.3-.2-.5-.3a1.09,1.09,0,0,0-.5-.1,1.59,1.59,0,0,0-1.6.9,5.36,5.36,0,0,0-.5,2.4c0,2,.7,3,2,3A2.86,2.86,0,0,0,60.4,15.25Z" transform="translate(0 0)"/><path class="cls-1" d="M66.2,15.55a4.31,4.31,0,0,1-1.1-3.1,4,4,0,0,1,.6-2.2,3.62,3.62,0,0,1,1.6-1.4,5.53,5.53,0,0,1,2.2-.46,3.83,3.83,0,0,1,2.6.7,3.33,3.33,0,0,1,1.1,2c0,.3.1.7.1,1.3H67.8a3.57,3.57,0,0,0,.4,1.9,1.77,1.77,0,0,0,.9,1,2.63,2.63,0,0,0,1.2.3,3.78,3.78,0,0,0,1.2-.2,2.37,2.37,0,0,0,.9-.6v-.1l.1-.1c.1-.1.1,0,.1,0l.3.2a.09.09,0,0,1,.1.08V15a3.45,3.45,0,0,1-1.2,1.2,4.06,4.06,0,0,1-2,.4A4.62,4.62,0,0,1,66.2,15.55Zm4.1-5.9a1,1,0,0,0-.9-.6,1.39,1.39,0,0,0-1.1.6,4.28,4.28,0,0,0-.6,2h2.8A3.9,3.9,0,0,0,70.3,9.65Z" transform="translate(0 0)"/><path class="cls-1" d="M74,16.39c0-.1-.1-.1-.1-.2s0-.2.1-.2a.35.35,0,0,1,.2-.1c.3,0,.5-.1.7-.1a.32.32,0,0,0,.3-.3v-5.1a1.23,1.23,0,0,0-.1-.6l-.3-.3c-.1-.1-.4-.1-.6-.1H74a.09.09,0,0,1-.1-.08V9.09c0-.1,0-.1.1-.2a.09.09,0,0,1,.08-.1h0c1,0,2-.1,3.1-.1h.2c.1,0,.1,0,.2.1a.35.35,0,0,1,.1.2v1.6a5.79,5.79,0,0,1,.7-1,4,4,0,0,1,1-.8,2.63,2.63,0,0,1,1.2-.3,1,1,0,0,1,1,.4,1.68,1.68,0,0,1,.3,1,1.32,1.32,0,0,1-.2.7,2.62,2.62,0,0,1-.5.6,1,1,0,0,1-.7.2l-1.2-1.5a1.6,1.6,0,0,0-1,.5,5.13,5.13,0,0,0-.8,1.2v3.5a.52.52,0,0,0,.2.4.76.76,0,0,0,.4.2c.2,0,.4.1.7.1H79c.1,0,.2,0,.2.1s.1.1.1.2,0,.1-.1.2-.1.1-.2.1H74.2C74.1,16.45,74.1,16.39,74,16.39Z" transform="translate(0 0)"/><path class="cls-1" d="M89.1,16.05a4.76,4.76,0,0,1-2.3-1.9,5.92,5.92,0,0,1-.9-3.4,5.83,5.83,0,0,1,.9-3.3,6,6,0,0,1,2.4-2,7.6,7.6,0,0,1,2.9-.6,9.29,9.29,0,0,1,1.9.2,4.9,4.9,0,0,1,1.3.4c.1,0,.2.1.3.1h.2l.1,2.5a.22.22,0,0,1-.2.2.37.37,0,0,1-.3.1h-.1a.63.63,0,0,1-.4-.1.22.22,0,0,1-.2-.2,3.67,3.67,0,0,0-.8-1.9,2.11,2.11,0,0,0-1.8-.7,2.81,2.81,0,0,0-1.5.4c-.5.2-.8.7-1.2,1.5a9,9,0,0,0-.5,3.3,8.37,8.37,0,0,0,.5,3.1,3,3,0,0,0,2.8,1.9,1.85,1.85,0,0,0,1.3-.4,2.18,2.18,0,0,0,.9-1,5.32,5.32,0,0,0,.5-1.4c0-.2.2-.3.4-.3a.79.79,0,0,1,.4.1.22.22,0,0,1,.2.2l-.2,2.4c0,.1-.2.2-.5.4a8.51,8.51,0,0,1-1.3.5,8.87,8.87,0,0,1-1.7.2A4.73,4.73,0,0,1,89.1,16.05Z" transform="translate(0 0)"/><path class="cls-1" d="M96.9,16.39c0-.1-.1-.1-.1-.2s0-.2.1-.2a.35.35,0,0,1,.2-.1c.2,0,.5-.1.6-.1a.45.45,0,0,0,.3-.3V6.09a.74.74,0,0,0-.2-.6,1.31,1.31,0,0,0-.4-.3,4,4,0,0,0-.5-.1h-.3A.09.09,0,0,1,96.5,5V4.79c0-.1,0-.1.1-.2a.09.09,0,0,1,.08-.1h0c1.1-.1,2.3-.1,3.5-.1.1,0,.1,0,.2.1s.1.1.1.2v10.6c0,.2,0,.3.1.4s.2.2.3.2a4,4,0,0,0,.5.1c.1,0,.2,0,.2.1s.1.1.1.2,0,.1-.1.2-.1.1-.2.1H97.1Z" transform="translate(0 0)"/><path class="cls-1" d="M104.4,16.45a1.54,1.54,0,0,1-.9-.7,2.61,2.61,0,0,1-.3-1.4v-4.3a.74.74,0,0,0-.1-.5c-.1-.1-.2-.2-.3-.2s-.3-.1-.4-.1-.2,0-.2-.1a.35.35,0,0,1-.1-.2c0-.1,0-.1.1-.2s.1-.1.2-.1h3.1a.27.27,0,0,1,.3.24h0v4.76q0,1.8.9,1.8a3.75,3.75,0,0,0,1.1-.2,2.92,2.92,0,0,0,.9-.7V10a.7.7,0,0,0-.2-.5.52.52,0,0,0-.4-.2,4.17,4.17,0,0,0-.6-.1c-.1,0-.2,0-.2-.1a.35.35,0,0,1-.1-.2c0-.1,0-.1.1-.2s.1-.1.2-.1h3.3a.27.27,0,0,1,.3.24h0V14.7c0,.3,0,.6.1.7s.1.2.3.2.3,0,.4-.1.1,0,.2.2a.63.63,0,0,1,.1.4v.1a6,6,0,0,1-.8.3,6.06,6.06,0,0,1-1.4.2c-.5,0-.8-.1-.9-.4a3.09,3.09,0,0,1-.2-.9,4.63,4.63,0,0,1-.7.7,4.68,4.68,0,0,1-1,.5,5.19,5.19,0,0,1-1.1.2A12.51,12.51,0,0,1,104.4,16.45Z" transform="translate(0 0)"/><path class="cls-1" d="M113.4,16.25V6a.74.74,0,0,0-.1-.5c-.1-.1-.2-.2-.3-.2a4,4,0,0,0-.5-.1h-.3a.09.09,0,0,1-.1-.08V4.9c0-.1,0-.1.1-.2a.09.09,0,0,1,.08-.1h0c.3,0,.9-.1,1.7-.1h1.7c.1,0,.1,0,.2.1s.1.1.1.2V9.5a2.32,2.32,0,0,1,1.1-.8,3.9,3.9,0,0,1,1.5-.3,3.11,3.11,0,0,1,3.1,2.1,6.52,6.52,0,0,1,.4,2.1,4.49,4.49,0,0,1-.5,2,4,4,0,0,1-1.4,1.5,3.79,3.79,0,0,1-2.2.6,8.49,8.49,0,0,1-3.2-.5,6.25,6.25,0,0,1-.6.4.3.3,0,0,1-.2.1h-.3C113.5,16.65,113.4,16.55,113.4,16.25Zm5.9-3.7a4.19,4.19,0,0,0-.5-2.2,1.67,1.67,0,0,0-1.5-.8,2.41,2.41,0,0,0-.8.2,1,1,0,0,0-.6.5v4.8q0,.15.3.3c.2.1.3.2.5.3a1.09,1.09,0,0,0,.5.1,1.7,1.7,0,0,0,1.6-.8" transform="translate(0 0)"/><path class="cls-2" d="M128.8,0c-.3,0-.4.2-.4.5a32.14,32.14,0,0,0,.2,3.4V4a10.11,10.11,0,0,0,1.1,3.6,11.38,11.38,0,0,0,3.5,3.8v4.8h-2.7c-.4,0-.4.2-.4.4s0,.4.4.4h6.1c.4,0,.4-.2.4-.4s0-.4-.4-.4H134V11.5a11.38,11.38,0,0,0,3.5-3.8A11.63,11.63,0,0,0,138.6,4h0V3.9a32.14,32.14,0,0,0,.2-3.4c0-.3-.2-.4-.5-.4h-9.5Zm2.4,3.8a9.53,9.53,0,0,1,2.6.4,9,9,0,0,0,3.8.2,8.35,8.35,0,0,1-.9,2.8,10.62,10.62,0,0,1-3.2,3.5,10.62,10.62,0,0,1-3.2-3.5,10.23,10.23,0,0,1-1-3.1A4.25,4.25,0,0,1,131.2,3.8Z" transform="translate(0 0)"/></svg>