<svg id="Capa_1" data-name="Capa 1" xmlns="http://www.w3.org/2000/svg" viewBox="0 0 18.7 30.65"><defs><style>.cls-1{fill:#ffbcf4;fill-rule:evenodd;}</style></defs><path class="cls-1" d="M.72,0C.18,0,0,.36,0,.9A59.09,59.09,0,0,0,.36,7v.18a18.37,18.37,0,0,0,2,6.49c1.44,2.89,3.59,4.69,6.29,6.85v8.66H3.78c-.72,0-.72.36-.72.72s0,.72.72.72h11c.72,0,.72-.36.72-.72s0-.72-.72-.72H10.07V20.73c2.69-2.16,4.85-4,6.29-6.85a20.8,20.8,0,0,0,2-6.67V7A59.09,59.09,0,0,0,18.7.9c0-.54-.36-.72-.9-.72H.72ZM5,6.85a17.05,17.05,0,0,1,4.68.72,16,16,0,0,0,6.83.36A15,15,0,0,1,14.92,13c-1.26,2.52-3.24,4.33-5.75,6.31-2.52-2-4.5-3.79-5.75-6.31a18.44,18.44,0,0,1-1.8-5.59A7.58,7.58,0,0,1,5,6.85Z" transform="translate(0 0)"/></svg>