<svg id="Layer_3" data-name="Layer 3" xmlns="http://www.w3.org/2000/svg" viewBox="0 0 138.8 17"><defs><style>.cls-1{fill:#212121;}.cls-2{fill:#7c0a30;fill-rule:evenodd;}</style></defs><path class="cls-1" d="M15.8,15.36a2.73,2.73,0,0,1,1.2.9,2.3,2.3,0,0,1,.4,1.4,3,3,0,0,1-1.1,2.5,6.46,6.46,0,0,1-3.5.8h-6c-.1,0-.1,0-.2-.1a.37.37,0,0,1-.1-.3c0-.1,0-.2.1-.2a.35.35,0,0,1,.2-.1,3,3,0,0,0,1-.2c.3-.1.4-.2.4-.4v-8.5a.68.68,0,0,0-.7-.7c-.2,0-.4-.1-.7-.1-.1,0-.2,0-.2-.1a.35.35,0,0,1-.1-.2.37.37,0,0,1,.1-.3c0-.1.1-.1.2-.1h5.5a6.73,6.73,0,0,1,3.2.6,2,2,0,0,1,1.1,1.9,3.19,3.19,0,0,1-.3,1.4,2,2,0,0,1-.9.9A2.65,2.65,0,0,1,14,15,8,8,0,0,1,15.8,15.36Zm-4.9-.7h.7a2.86,2.86,0,0,0,1.7-.5,1.75,1.75,0,0,0,.7-1.6c0-1.3-.7-2-2.2-2h-.9Zm2.9,5a2.49,2.49,0,0,0,.7-2,2.54,2.54,0,0,0-.5-1.6,2.07,2.07,0,0,0-1-.6,6.15,6.15,0,0,0-1.4-.1h-.7V20c0,.1.1.1.3.2a2.22,2.22,0,0,0,.9.1A2.52,2.52,0,0,0,13.8,19.66Z" transform="translate(-6.5 -4.61)"/><path class="cls-1" d="M19.1,17.56a3.7,3.7,0,0,1,1.8-.8,15,15,0,0,1,2.4-.4V15a1.33,1.33,0,0,0-.3-1,1.22,1.22,0,0,0-.9-.3c-.5,0-.8,0-.9.1L20,16a1.2,1.2,0,0,1-1.3-1.1,1.38,1.38,0,0,1,.6-1.1,3.39,3.39,0,0,1,1.5-.6,9.85,9.85,0,0,1,1.7-.2,5,5,0,0,1,1.9.3,1.88,1.88,0,0,1,1.1.8,2.1,2.1,0,0,1,.4,1.1v4.2a.75.75,0,0,0,.1.5c.1.1.1.2.2.2a.76.76,0,0,0,.4-.1h.2c.1,0,.1,0,.2.1s.1.2.1.3v.1c-.1.1-.2.1-.5.2a1.88,1.88,0,0,1-.8.2,3.75,3.75,0,0,1-1.1.1,2,2,0,0,1-.9-.2.54.54,0,0,1-.3-.4v-.5h0a2.55,2.55,0,0,1-1.2.8,4.15,4.15,0,0,1-1.6.3,4.25,4.25,0,0,1-1.1-.2,1.6,1.6,0,0,1-.9-.7,2.14,2.14,0,0,1-.4-1.2A1.88,1.88,0,0,1,19.1,17.56Zm2.2,2.2a1,1,0,0,0,.8.3,1.76,1.76,0,0,0,1.3-.6V17l-1.2.3a1.56,1.56,0,0,0-.8.6,2.13,2.13,0,0,0-.3,1.2A.62.62,0,0,0,21.3,19.76Z" transform="translate(-6.5 -4.61)"/><path class="cls-1" d="M27.5,21c0-.1-.1-.1-.1-.2s0-.2.1-.2a.35.35,0,0,1,.2-.1c.3,0,.5-.1.7-.1s.3-.2.3-.3V15a1.27,1.27,0,0,0-.1-.6l-.3-.3a2,2,0,0,0-.7-.1h-.2a.1.1,0,0,1-.1-.1v-.2c0-.1,0-.1.1-.2a.1.1,0,0,1,.1-.1c1,0,2-.1,3.1-.1h.2c.1,0,.1,0,.1.1s.1.1.1.2v1.6a6.07,6.07,0,0,1,.7-1,3.92,3.92,0,0,1,1-.8,2.66,2.66,0,0,1,1.2-.3,1.05,1.05,0,0,1,1,.4,1.69,1.69,0,0,1,.3,1,1.45,1.45,0,0,1-.2.7,2.65,2.65,0,0,1-.5.6.65.65,0,0,1-.5.2l-1.2-1.5a1.59,1.59,0,0,0-1,.5,5,5,0,0,0-.8,1.2v3.5a.52.52,0,0,0,.2.4.76.76,0,0,0,.4.2,5.64,5.64,0,0,0,.7.1h.2c.1,0,.2,0,.2.1a.35.35,0,0,1,.1.2c0,.1,0,.1-.1.2s-.1.1-.2.1H27.7A.14.14,0,0,1,27.5,21Z" transform="translate(-6.5 -4.61)"/><path class="cls-1" d="M37,20.86a1.65,1.65,0,0,1-.7-1.6v-5.2h-.8c-.1,0-.1,0-.1-.1a.35.35,0,0,0-.1-.2c0-.1,0-.2.1-.2a.1.1,0,0,1,.1-.1l1-.3a.54.54,0,0,0,.4-.3,1.61,1.61,0,0,0,.4-.7c.1-.3.2-.6.3-1q0-.3.6-.3t.6.3v2.2h1.7c.1,0,.1,0,.1.1s.1.1.1.2,0,.3-.1.4a.22.22,0,0,1-.2.2H38.7v4.5a2.79,2.79,0,0,0,.1,1,.76.76,0,0,0,.2.5.6.6,0,0,0,.4.1,1.27,1.27,0,0,0,.6-.1c.2-.1.5-.2.7-.3a.1.1,0,0,1,.1.1.37.37,0,0,1,.1.3v.2a1.54,1.54,0,0,1-.6.4,3.18,3.18,0,0,1-.9.3,2.49,2.49,0,0,1-.8.1A6,6,0,0,1,37,20.86Z" transform="translate(-6.5 -4.61)"/><path class="cls-1" d="M42.6,20.16a4.33,4.33,0,0,1-1.1-3.1,4,4,0,0,1,.6-2.2,3.64,3.64,0,0,1,1.6-1.4,5.45,5.45,0,0,1,2.2-.5,3.85,3.85,0,0,1,2.6.7,3.29,3.29,0,0,1,1.1,2c0,.3.1.7.1,1.3H44.2a3.58,3.58,0,0,0,.4,1.9,1.79,1.79,0,0,0,.9,1,2.66,2.66,0,0,0,1.2.3,3.73,3.73,0,0,0,1.2-.2,2.36,2.36,0,0,0,.9-.6v-.1l.1-.1c.1-.1.1,0,.1,0l.3.2a.1.1,0,0,1,.1.1v.1a3.45,3.45,0,0,1-1.2,1.2,4,4,0,0,1-2,.4A4.72,4.72,0,0,1,42.6,20.16Zm4.2-5.9a1,1,0,0,0-.9-.6,1.38,1.38,0,0,0-1.1.6,4.3,4.3,0,0,0-.6,2H47A3.82,3.82,0,0,0,46.8,14.26Z" transform="translate(-6.5 -4.61)"/><path class="cls-1" d="M50.5,21c0-.1-.1-.1-.1-.2s0-.2.1-.2a.35.35,0,0,1,.2-.1c.6-.1.8-.2.8-.5V15a1.27,1.27,0,0,0-.1-.6c-.1-.2-.2-.2-.3-.3a4.33,4.33,0,0,0-.5-.1h-.3a.1.1,0,0,1-.1-.1v-.2c0-.1,0-.1.1-.2a.1.1,0,0,1,.1-.1c1.2-.1,2.3-.1,3.3-.1.1,0,.1,0,.2.1s.1.1.1.2v.9a2.49,2.49,0,0,1,.7-.5,6.66,6.66,0,0,1,1.2-.6,3,3,0,0,1,1.3-.2,3.56,3.56,0,0,1,1.9.5,2.11,2.11,0,0,1,.7,1.9v4.3a.85.85,0,0,0,.2.6c.1.1.3.1.5.2s.3,0,.3,0,.2,0,.2.1a.35.35,0,0,1,.1.2c0,.1,0,.1-.1.2s-.1.1-.2.1H56.6c-.1,0-.2,0-.2-.1s-.1-.1-.1-.2v-.2a.35.35,0,0,1,.2-.1.76.76,0,0,0,.5-.2c.2-.1.2-.2.2-.3v-5.1c0-.2-.1-.3-.3-.4a1.07,1.07,0,0,0-.6-.2,2.35,2.35,0,0,0-.8.2,3,3,0,0,0-.8.4c-.2.2-.4.3-.5.5V20a.75.75,0,0,0,.1.5c.1.1.2.2.3.2s.3.1.4.1.2,0,.2.1a.35.35,0,0,1,.1.2c0,.1,0,.1-.1.2s-.1.1-.2.1H50.9Z" transform="translate(-6.5 -4.61)"/><path class="cls-1" d="M62.9,20.66a3.27,3.27,0,0,1-1.1-1.5,6.54,6.54,0,0,1-.4-2.1,4.55,4.55,0,0,1,.5-2,4,4,0,0,1,1.4-1.5,3.8,3.8,0,0,1,2.2-.6,3.75,3.75,0,0,1,1.1.1,6.89,6.89,0,0,1,1,.4l-.1-1.2v-1.8a.67.67,0,0,0-.4-.7,10.38,10.38,0,0,0-1.2-.3.1.1,0,0,1-.1-.1v-.2c0-.1,0-.1.1-.2a.1.1,0,0,1,.1-.1,29.19,29.19,0,0,1,3.2-.1h.7c.1,0,.1,0,.2.1s.1.1.1.2v10.5a.75.75,0,0,0,.1.5c.1.1.2.2.3.2s.3.1.4.1.2,0,.2.1a.35.35,0,0,1,.1.2c0,.1,0,.1-.1.2s-.2.2-.3.2H68.2c-.2,0-.3,0-.4-.1l-.2-.2v-.5a3.13,3.13,0,0,1-1.1.8,4,4,0,0,1-1.5.3A4.36,4.36,0,0,1,62.9,20.66Zm4-.8a1,1,0,0,0,.6-.5v-4.7a.54.54,0,0,0-.3-.4c-.2-.1-.3-.2-.5-.3a1.09,1.09,0,0,0-.5-.1,1.6,1.6,0,0,0-1.6.9,5.36,5.36,0,0,0-.5,2.4c0,2,.7,3,2,3A2.61,2.61,0,0,0,66.9,19.86Z" transform="translate(-6.5 -4.61)"/><path class="cls-1" d="M72.7,20.16a4.33,4.33,0,0,1-1.1-3.1,4,4,0,0,1,.6-2.2,3.64,3.64,0,0,1,1.6-1.4A5.45,5.45,0,0,1,76,13a3.85,3.85,0,0,1,2.6.7,3.29,3.29,0,0,1,1.1,2c0,.3.1.7.1,1.3H74.3a3.58,3.58,0,0,0,.4,1.9,1.79,1.79,0,0,0,.9,1,2.66,2.66,0,0,0,1.2.3A3.73,3.73,0,0,0,78,20a2.36,2.36,0,0,0,.9-.6v-.1l.1-.1c.1-.1.1,0,.1,0l.3.2a.1.1,0,0,1,.1.1v.1a3.45,3.45,0,0,1-1.2,1.2,4,4,0,0,1-2,.4A4.58,4.58,0,0,1,72.7,20.16Zm4.1-5.9a1,1,0,0,0-.9-.6,1.38,1.38,0,0,0-1.1.6,4.3,4.3,0,0,0-.6,2H77A3.82,3.82,0,0,0,76.8,14.26Z" transform="translate(-6.5 -4.61)"/><path class="cls-1" d="M80.5,21c0-.1-.1-.1-.1-.2s0-.2.1-.2a.35.35,0,0,1,.2-.1c.3,0,.5-.1.7-.1s.3-.2.3-.3V15a1.27,1.27,0,0,0-.1-.6l-.3-.3c-.1-.1-.4-.1-.6-.1h-.2a.1.1,0,0,1-.1-.1v-.2c0-.1,0-.1.1-.2a.1.1,0,0,1,.1-.1c1,0,2-.1,3.1-.1h.2c.1,0,.1,0,.2.1a.35.35,0,0,1,.1.2v1.6a6.07,6.07,0,0,1,.7-1,3.92,3.92,0,0,1,1-.8,2.66,2.66,0,0,1,1.2-.3,1.05,1.05,0,0,1,1,.4,1.69,1.69,0,0,1,.3,1,1.45,1.45,0,0,1-.2.7,2.65,2.65,0,0,1-.5.6,1,1,0,0,1-.7.2l-1.2-1.5a1.59,1.59,0,0,0-1,.5,5,5,0,0,0-.8,1.2v3.5a.52.52,0,0,0,.2.4.76.76,0,0,0,.4.2c.2,0,.4.1.7.1h.2c.1,0,.2,0,.2.1s.1.1.1.2,0,.1-.1.2-.1.1-.2.1H80.7C80.6,21.06,80.6,21,80.5,21Z" transform="translate(-6.5 -4.61)"/><path class="cls-1" d="M95.6,20.66a4.75,4.75,0,0,1-2.3-1.9,5.93,5.93,0,0,1-.9-3.4,5.82,5.82,0,0,1,.9-3.3,5.88,5.88,0,0,1,2.4-2,7.53,7.53,0,0,1,2.9-.6,9.2,9.2,0,0,1,1.9.2,5,5,0,0,1,1.3.4c.1,0,.2.1.3.1h.2l.1,2.5a.22.22,0,0,1-.2.2.37.37,0,0,1-.3.1h-.1a.6.6,0,0,1-.4-.1.22.22,0,0,1-.2-.2,3.67,3.67,0,0,0-.8-1.9,2.14,2.14,0,0,0-1.8-.7,2.82,2.82,0,0,0-1.5.4c-.5.2-.8.7-1.2,1.5a9.13,9.13,0,0,0-.5,3.3,8.32,8.32,0,0,0,.5,3.1,3,3,0,0,0,2.8,1.9,1.84,1.84,0,0,0,1.3-.4,2.19,2.19,0,0,0,.9-1,5.78,5.78,0,0,0,.5-1.4c0-.2.2-.3.4-.3a.76.76,0,0,1,.4.1.22.22,0,0,1,.2.2l-.2,2.4c0,.1-.2.2-.5.4a8.93,8.93,0,0,1-1.3.5,8.81,8.81,0,0,1-1.7.2A4.71,4.71,0,0,1,95.6,20.66Z" transform="translate(-6.5 -4.61)"/><path class="cls-1" d="M103.4,21c0-.1-.1-.1-.1-.2s0-.2.1-.2a.35.35,0,0,1,.2-.1c.2,0,.5-.1.6-.1a.45.45,0,0,0,.3-.3v-9.4a.73.73,0,0,0-.2-.6,1.38,1.38,0,0,0-.4-.3,4.33,4.33,0,0,0-.5-.1h-.3a.1.1,0,0,1-.1-.1v-.2c0-.1,0-.1.1-.2a.1.1,0,0,1,.1-.1c1.1-.1,2.3-.1,3.5-.1.1,0,.1,0,.2.1s.1.1.1.2v10.6c0,.2,0,.3.1.4s.2.2.3.2a4.33,4.33,0,0,0,.5.1c.1,0,.2,0,.2.1s.1.1.1.2,0,.1-.1.2-.1.1-.2.1h-4.3Z" transform="translate(-6.5 -4.61)"/><path class="cls-1" d="M110.9,21.06a1.6,1.6,0,0,1-.9-.7,2.65,2.65,0,0,1-.3-1.4v-4.3a.75.75,0,0,0-.1-.5c-.1-.1-.2-.2-.3-.2s-.3-.1-.4-.1-.2,0-.2-.1a.35.35,0,0,1-.1-.2c0-.1,0-.1.1-.2s.1-.1.2-.1H112a.27.27,0,0,1,.3.3v4.7q0,1.8.9,1.8a3.59,3.59,0,0,0,1.1-.2,2.76,2.76,0,0,0,.9-.7v-4.6a.76.76,0,0,0-.2-.5.52.52,0,0,0-.4-.2,3.54,3.54,0,0,0-.6-.1c-.1,0-.2,0-.2-.1a.35.35,0,0,1-.1-.2c0-.1,0-.1.1-.2s.1-.1.2-.1h3.3a.27.27,0,0,1,.3.3v5.8c0,.3,0,.6.1.7s.1.2.3.2.3,0,.4-.1.1,0,.2.2a.6.6,0,0,1,.1.4v.1a6.89,6.89,0,0,1-.8.3,5.9,5.9,0,0,1-1.4.2c-.5,0-.8-.1-.9-.4a2.92,2.92,0,0,1-.2-.9,4.62,4.62,0,0,1-.7.7,4.67,4.67,0,0,1-1,.5,5.16,5.16,0,0,1-1.1.2A13.88,13.88,0,0,1,110.9,21.06Z" transform="translate(-6.5 -4.61)"/><path class="cls-1" d="M119.9,20.86V10.56a.75.75,0,0,0-.1-.5c-.1-.1-.2-.2-.3-.2a4.33,4.33,0,0,0-.5-.1h-.3a.1.1,0,0,1-.1-.1v-.2c0-.1,0-.1.1-.2a.1.1,0,0,1,.1-.1c.3,0,.9-.1,1.7-.1h1.7c.1,0,.1,0,.2.1s.1.1.1.2v4.7a2.42,2.42,0,0,1,1.1-.8,4,4,0,0,1,1.5-.3,3.17,3.17,0,0,1,2,.6,3.27,3.27,0,0,1,1.1,1.5,6.54,6.54,0,0,1,.4,2.1,4.55,4.55,0,0,1-.5,2,4,4,0,0,1-1.4,1.5,3.8,3.8,0,0,1-2.2.6,8.53,8.53,0,0,1-3.2-.5,6.13,6.13,0,0,1-.6.4.31.31,0,0,1-.2.1h-.3C120,21.26,119.9,21.16,119.9,20.86Zm5.9-3.7a4.2,4.2,0,0,0-.5-2.2,1.65,1.65,0,0,0-1.5-.8,2.35,2.35,0,0,0-.8.2,1,1,0,0,0-.6.5v4.8q0,.15.3.3c.2.1.3.2.5.3a1.09,1.09,0,0,0,.5.1,1.7,1.7,0,0,0,1.6-.8" transform="translate(-6.5 -4.61)"/><path class="cls-2" d="M135.3,4.61c-.3,0-.4.2-.4.5a32.81,32.81,0,0,0,.2,3.4v.1a10.21,10.21,0,0,0,1.1,3.6,11.46,11.46,0,0,0,3.5,3.8v4.8H137c-.4,0-.4.2-.4.4s0,.4.4.4h6.1c.4,0,.4-.2.4-.4s0-.4-.4-.4h-2.6v-4.7a11.46,11.46,0,0,0,3.5-3.8,11.56,11.56,0,0,0,1.1-3.7h0v-.1a32.81,32.81,0,0,0,.2-3.4c0-.3-.2-.4-.5-.4h-9.5Zm2.4,3.8a9.47,9.47,0,0,1,2.6.4,9,9,0,0,0,3.8.2,8.37,8.37,0,0,1-.9,2.8,10.54,10.54,0,0,1-3.2,3.5,10.54,10.54,0,0,1-3.2-3.5,10.26,10.26,0,0,1-1-3.1A4.24,4.24,0,0,1,137.7,8.41Z" transform="translate(-6.5 -4.61)"/></svg>