<?xml version="1.0" encoding="utf-8"?>
<!-- Generator: Adobe Illustrator 25.3.0, SVG Export Plug-In . SVG Version: 6.00 Build 0)  -->
<svg version="1.1" id="Layer_3" xmlns="http://www.w3.org/2000/svg" xmlns:xlink="http://www.w3.org/1999/xlink" x="0px" y="0px"
	 viewBox="0 0 155.2 41.6" style="enable-background:new 0 0 155.2 41.6;" xml:space="preserve">
<style type="text/css">
	.st0{fill:#212121;}
	.st1{fill-rule:evenodd;clip-rule:evenodd;fill:#7C0A30;}
</style>
<g>
	<path class="st0" d="M15.8,19.4c0.5,0.2,0.9,0.5,1.2,0.9c0.3,0.4,0.4,0.9,0.4,1.4c0,1.1-0.4,2-1.1,2.5c-0.8,0.5-1.9,0.8-3.5,0.8
		H6.8c-0.1,0-0.1,0-0.2-0.1c-0.1-0.1-0.1-0.2-0.1-0.3c0-0.1,0-0.2,0.1-0.2c0,0,0.1-0.1,0.2-0.1c0.4,0,0.7-0.1,1-0.2s0.4-0.2,0.4-0.4
		l0-8.5c0-0.2-0.1-0.4-0.2-0.5s-0.3-0.2-0.5-0.2c-0.2,0-0.4-0.1-0.7-0.1c-0.1,0-0.2,0-0.2-0.1c0,0-0.1-0.1-0.1-0.2
		c0-0.1,0-0.2,0.1-0.3c0-0.1,0.1-0.1,0.2-0.1h5.5c1.4,0,2.5,0.2,3.2,0.6c0.7,0.4,1.1,1,1.1,1.9c0,0.5-0.1,1-0.3,1.4
		s-0.5,0.7-0.9,0.9C14.9,18.8,14.5,19,14,19C14.7,19.1,15.3,19.2,15.8,19.4z M10.9,18.7h0.7c0.7,0,1.3-0.2,1.7-0.5
		c0.5-0.3,0.7-0.9,0.7-1.6c0-1.3-0.7-2-2.2-2h-0.9V18.7z M13.8,23.7c0.4-0.3,0.7-1,0.7-2c0-0.7-0.2-1.2-0.5-1.6
		c-0.3-0.3-0.6-0.5-1-0.6c-0.4-0.1-0.9-0.1-1.4-0.1h-0.7V24c0,0.1,0.1,0.1,0.3,0.2c0.2,0.1,0.5,0.1,0.9,0.1
		C12.8,24.3,13.3,24.1,13.8,23.7z"/>
	<path class="st0" d="M19.1,21.6c0.5-0.4,1.1-0.7,1.8-0.8c0.7-0.2,1.5-0.3,2.4-0.4V19c0-0.5-0.1-0.8-0.3-1c-0.2-0.2-0.5-0.3-0.9-0.3
		c-0.5,0-0.8,0-0.9,0.1L20,20c-0.4,0-0.7-0.1-0.9-0.3c-0.2-0.2-0.4-0.5-0.4-0.8c0-0.4,0.2-0.8,0.6-1.1c0.4-0.3,0.9-0.5,1.5-0.6
		s1.1-0.2,1.7-0.2c0.8,0,1.4,0.1,1.9,0.3c0.5,0.2,0.9,0.4,1.1,0.8c0.2,0.3,0.4,0.7,0.4,1.1v4.2c0,0.2,0,0.4,0.1,0.5
		c0.1,0.1,0.1,0.2,0.2,0.2c0.1,0,0.2,0,0.4-0.1l0.2,0c0.1,0,0.1,0,0.2,0.1c0,0.1,0.1,0.2,0.1,0.3c0,0.1,0,0.1,0,0.1
		c-0.1,0.1-0.2,0.1-0.5,0.2c-0.2,0.1-0.5,0.2-0.8,0.2c-0.3,0.1-0.7,0.1-1.1,0.1c-0.4,0-0.7-0.1-0.9-0.2s-0.3-0.3-0.3-0.4
		c0-0.1,0-0.3,0-0.5v0c-0.3,0.4-0.7,0.6-1.2,0.8s-1,0.3-1.6,0.3c-0.4,0-0.7-0.1-1.1-0.2s-0.7-0.4-0.9-0.7c-0.2-0.3-0.4-0.7-0.4-1.2
		C18.3,22.5,18.6,22,19.1,21.6z M21.3,23.8c0.2,0.2,0.4,0.3,0.8,0.3c0.5,0,0.9-0.2,1.3-0.6V21c-0.4,0.1-0.8,0.2-1.2,0.3
		c-0.3,0.1-0.6,0.3-0.8,0.6c-0.2,0.3-0.3,0.7-0.3,1.2C21,23.4,21.1,23.6,21.3,23.8z"/>
	<path class="st0" d="M27.5,25c0-0.1-0.1-0.1-0.1-0.2c0-0.1,0-0.2,0.1-0.2c0,0,0.1-0.1,0.2-0.1c0.3,0,0.5-0.1,0.7-0.1
		c0.2-0.1,0.3-0.2,0.3-0.3v-5.1c0-0.2,0-0.4-0.1-0.6c-0.1-0.1-0.2-0.2-0.3-0.3C28,18,27.8,18,27.6,18c0,0-0.1,0-0.1,0
		c-0.1,0-0.1,0-0.1,0c-0.1,0-0.1-0.1-0.1-0.1c0,0,0-0.1,0-0.2c0-0.1,0-0.1,0.1-0.2c0-0.1,0.1-0.1,0.1-0.1c1,0,2-0.1,3.1-0.1h0.2
		c0.1,0,0.1,0,0.1,0.1s0.1,0.1,0.1,0.2v1.6c0.2-0.3,0.4-0.7,0.7-1c0.3-0.3,0.6-0.6,1-0.8s0.8-0.3,1.2-0.3c0.5,0,0.8,0.1,1,0.4
		c0.2,0.3,0.3,0.6,0.3,1c0,0.3-0.1,0.5-0.2,0.7c-0.1,0.2-0.3,0.4-0.5,0.6S34.1,20,34,20l-1.2-1.5c-0.3,0-0.7,0.2-1,0.5
		c-0.3,0.3-0.6,0.8-0.8,1.2v3.5c0,0.2,0.1,0.3,0.2,0.4c0.1,0.1,0.3,0.2,0.4,0.2s0.4,0.1,0.7,0.1l0.2,0c0.1,0,0.2,0,0.2,0.1
		c0,0,0.1,0.1,0.1,0.2c0,0.1,0,0.1-0.1,0.2s-0.1,0.1-0.2,0.1h-4.8C27.6,25.1,27.5,25,27.5,25z"/>
	<path class="st0" d="M37,24.9c-0.5-0.3-0.7-0.8-0.7-1.6v-5.2h-0.8c-0.1,0-0.1,0-0.1-0.1s-0.1-0.2-0.1-0.2c0-0.1,0-0.2,0.1-0.2
		c0-0.1,0.1-0.1,0.1-0.1l1-0.3c0.1,0,0.3-0.1,0.4-0.3c0.2-0.2,0.3-0.4,0.4-0.7c0.1-0.3,0.2-0.6,0.3-1c0-0.2,0.2-0.3,0.6-0.3
		c0.4,0,0.6,0.1,0.6,0.3v2.2h1.7c0.1,0,0.1,0,0.1,0.1c0,0.1,0.1,0.1,0.1,0.2c0,0.2,0,0.3-0.1,0.4c0,0.1-0.1,0.2-0.2,0.2h-1.7v4.5
		c0,0.4,0,0.8,0.1,1c0,0.2,0.1,0.4,0.2,0.5c0.1,0.1,0.3,0.1,0.4,0.1c0.2,0,0.4,0,0.6-0.1s0.5-0.2,0.7-0.3c0,0,0.1,0,0.1,0.1
		c0.1,0.1,0.1,0.2,0.1,0.3c0,0.1,0,0.1,0,0.2c-0.1,0.1-0.3,0.3-0.6,0.4c-0.3,0.1-0.6,0.3-0.9,0.3c-0.3,0.1-0.6,0.1-0.8,0.1
		C38,25.3,37.4,25.1,37,24.9z"/>
	<path class="st0" d="M42.6,24.2c-0.7-0.7-1.1-1.8-1.1-3.1c0-0.8,0.2-1.6,0.6-2.2s0.9-1.1,1.6-1.4c0.7-0.3,1.4-0.5,2.2-0.5
		c1.2,0,2,0.2,2.6,0.7c0.6,0.5,0.9,1.1,1.1,2c0,0.3,0.1,0.7,0.1,1.3l-5.5,0c0,0.8,0.1,1.4,0.4,1.9c0.2,0.5,0.5,0.8,0.9,1
		c0.4,0.2,0.8,0.3,1.2,0.3c0.5,0,0.9-0.1,1.2-0.2s0.6-0.3,0.9-0.6c0,0,0,0,0-0.1c0,0,0,0,0.1-0.1s0.1,0,0.1,0l0.3,0.2
		c0.1,0,0.1,0.1,0.1,0.1c0,0,0,0.1,0,0.1c-0.3,0.5-0.7,0.9-1.2,1.2c-0.5,0.3-1.2,0.4-2,0.4C44.5,25.3,43.4,24.9,42.6,24.2z
		 M46.8,18.3c-0.2-0.4-0.5-0.6-0.9-0.6c-0.4,0-0.8,0.2-1.1,0.6c-0.3,0.4-0.5,1.1-0.6,2h2.8C47.1,19.4,47,18.7,46.8,18.3z"/>
	<path class="st0" d="M50.5,25c0-0.1-0.1-0.1-0.1-0.2c0-0.1,0-0.2,0.1-0.2c0,0,0.1-0.1,0.2-0.1c0.6-0.1,0.8-0.2,0.8-0.5v-5
		c0-0.2,0-0.4-0.1-0.6s-0.2-0.2-0.3-0.3c-0.1,0-0.3-0.1-0.5-0.1c-0.2,0-0.2,0-0.3,0c-0.1,0-0.1-0.1-0.1-0.1c0,0,0-0.1,0-0.2
		c0-0.1,0-0.1,0.1-0.2c0-0.1,0.1-0.1,0.1-0.1c1.2-0.1,2.3-0.1,3.3-0.1c0.1,0,0.1,0,0.2,0.1s0.1,0.1,0.1,0.2v0.9
		c0.1-0.1,0.3-0.3,0.7-0.5c0.3-0.2,0.7-0.4,1.2-0.6c0.4-0.2,0.9-0.2,1.3-0.2c0.8,0,1.4,0.2,1.9,0.5c0.5,0.3,0.7,1,0.7,1.9v4.3
		c0,0.3,0.1,0.5,0.2,0.6c0.1,0.1,0.3,0.1,0.5,0.2s0.3,0,0.3,0c0.1,0,0.2,0,0.2,0.1c0,0,0.1,0.1,0.1,0.2c0,0.1,0,0.1-0.1,0.2
		c0,0.1-0.1,0.1-0.2,0.1h-4.2c-0.1,0-0.2,0-0.2-0.1s-0.1-0.1-0.1-0.2c0-0.1,0-0.2,0-0.2s0.1-0.1,0.2-0.1c0.2,0,0.4-0.1,0.5-0.2
		c0.2-0.1,0.2-0.2,0.2-0.3v-4.5c0-0.2,0-0.4,0-0.6c0-0.2-0.1-0.3-0.3-0.4c-0.1-0.1-0.4-0.2-0.6-0.2c-0.3,0-0.5,0.1-0.8,0.2
		s-0.5,0.2-0.8,0.4c-0.2,0.2-0.4,0.3-0.5,0.5v4.4c0,0.2,0,0.4,0.1,0.5c0.1,0.1,0.2,0.2,0.3,0.2c0.1,0,0.3,0.1,0.4,0.1
		c0.1,0,0.2,0,0.2,0.1c0,0,0.1,0.1,0.1,0.2c0,0.1,0,0.1-0.1,0.2c-0.1,0.1-0.1,0.1-0.2,0.1h-4.1C50.6,25.1,50.5,25,50.5,25z"/>
	<path class="st0" d="M62.9,24.7c-0.5-0.4-0.9-0.9-1.1-1.5c-0.2-0.6-0.4-1.3-0.4-2.1c0-0.7,0.2-1.4,0.5-2s0.8-1.1,1.4-1.5
		s1.3-0.6,2.2-0.6c0.4,0,0.8,0,1.1,0.1c0.3,0.1,0.6,0.2,1,0.4l-0.1-1.2v-1.8c0-0.3-0.1-0.6-0.4-0.7c-0.3-0.1-0.7-0.2-1.2-0.3
		c-0.1,0-0.1-0.1-0.1-0.1s0-0.1,0-0.2c0-0.1,0-0.1,0.1-0.2c0-0.1,0.1-0.1,0.1-0.1c0.8-0.1,1.9-0.1,3.2-0.1h0.7c0.1,0,0.1,0,0.2,0.1
		c0.1,0,0.1,0.1,0.1,0.2v10.5c0,0.2,0,0.4,0.1,0.5c0.1,0.1,0.2,0.2,0.3,0.2c0.1,0,0.3,0.1,0.4,0.1c0.1,0,0.2,0,0.2,0.1
		c0,0,0.1,0.1,0.1,0.2c0,0.1,0,0.1-0.1,0.2C71,25,71,25.1,70.9,25.1h-2.7c-0.2,0-0.3,0-0.4-0.1s-0.1-0.1-0.2-0.2c0-0.1,0-0.3,0-0.5
		c-0.3,0.3-0.6,0.6-1.1,0.8c-0.5,0.2-1,0.3-1.5,0.3C64.1,25.3,63.5,25.1,62.9,24.7z M66.9,23.9c0.3-0.1,0.5-0.3,0.6-0.5v-4.7
		c0-0.1-0.1-0.3-0.3-0.4s-0.3-0.2-0.5-0.3s-0.4-0.1-0.5-0.1c-0.8,0-1.3,0.3-1.6,0.9c-0.3,0.6-0.5,1.4-0.5,2.4c0,2,0.7,3,2,3
		C66.4,24.1,66.6,24.1,66.9,23.9z"/>
	<path class="st0" d="M72.7,24.2c-0.7-0.7-1.1-1.8-1.1-3.1c0-0.8,0.2-1.6,0.6-2.2s0.9-1.1,1.6-1.4c0.7-0.3,1.4-0.5,2.2-0.5
		c1.2,0,2,0.2,2.6,0.7c0.6,0.5,0.9,1.1,1.1,2c0,0.3,0.1,0.7,0.1,1.3l-5.5,0c0,0.8,0.1,1.4,0.4,1.9c0.2,0.5,0.5,0.8,0.9,1
		c0.4,0.2,0.8,0.3,1.2,0.3c0.5,0,0.9-0.1,1.2-0.2s0.6-0.3,0.9-0.6c0,0,0,0,0-0.1c0,0,0,0,0.1-0.1s0.1,0,0.1,0l0.3,0.2
		c0.1,0,0.1,0.1,0.1,0.1c0,0,0,0.1,0,0.1c-0.3,0.5-0.7,0.9-1.2,1.2c-0.5,0.3-1.2,0.4-2,0.4C74.6,25.3,73.4,24.9,72.7,24.2z
		 M76.8,18.3c-0.2-0.4-0.5-0.6-0.9-0.6c-0.4,0-0.8,0.2-1.1,0.6c-0.3,0.4-0.5,1.1-0.6,2h2.8C77.1,19.4,77,18.7,76.8,18.3z"/>
	<path class="st0" d="M80.5,25c0-0.1-0.1-0.1-0.1-0.2c0-0.1,0-0.2,0.1-0.2c0,0,0.1-0.1,0.2-0.1c0.3,0,0.5-0.1,0.7-0.1
		c0.2-0.1,0.3-0.2,0.3-0.3v-5.1c0-0.2,0-0.4-0.1-0.6c-0.1-0.1-0.2-0.2-0.3-0.3S80.9,18,80.7,18c0,0-0.1,0-0.1,0s-0.1,0-0.1,0
		c-0.1,0-0.1-0.1-0.1-0.1c0,0,0-0.1,0-0.2c0-0.1,0-0.1,0.1-0.2c0-0.1,0.1-0.1,0.1-0.1c1,0,2-0.1,3.1-0.1h0.2c0.1,0,0.1,0,0.2,0.1
		c0,0,0.1,0.1,0.1,0.2v1.6c0.2-0.3,0.4-0.7,0.7-1c0.3-0.3,0.6-0.6,1-0.8s0.8-0.3,1.2-0.3c0.5,0,0.8,0.1,1,0.4s0.3,0.6,0.3,1
		c0,0.3-0.1,0.5-0.2,0.7c-0.1,0.2-0.3,0.4-0.5,0.6S87.2,20,87,20l-1.2-1.5c-0.3,0-0.7,0.2-1,0.5c-0.3,0.3-0.6,0.8-0.8,1.2v3.5
		c0,0.2,0.1,0.3,0.2,0.4s0.3,0.2,0.4,0.2c0.2,0,0.4,0.1,0.7,0.1l0.2,0c0.1,0,0.2,0,0.2,0.1s0.1,0.1,0.1,0.2c0,0.1,0,0.1-0.1,0.2
		c0,0.1-0.1,0.1-0.2,0.1h-4.8C80.6,25.1,80.6,25,80.5,25z"/>
	<path class="st0" d="M95.6,24.7c-1-0.4-1.7-1-2.3-1.9c-0.6-0.9-0.9-2-0.9-3.4c0-1.3,0.3-2.4,0.9-3.3s1.4-1.5,2.4-2
		c1-0.4,1.9-0.6,2.9-0.6c0.8,0,1.4,0.1,1.9,0.2s0.9,0.2,1.3,0.4c0.1,0,0.2,0.1,0.3,0.1s0.2,0,0.2,0l0.1,2.5c0,0.1-0.1,0.2-0.2,0.2
		c-0.1,0.1-0.2,0.1-0.3,0.1l-0.1,0c-0.1,0-0.3,0-0.4-0.1c-0.1,0-0.2-0.1-0.2-0.2c-0.1-0.8-0.4-1.4-0.8-1.9s-1-0.7-1.8-0.7
		c-0.5,0-1,0.1-1.5,0.4c-0.5,0.2-0.8,0.7-1.2,1.5c-0.3,0.8-0.5,1.8-0.5,3.3c0,1.3,0.2,2.4,0.5,3.1c0.4,0.8,0.8,1.3,1.3,1.5
		c0.5,0.3,1,0.4,1.5,0.4c0.5,0,1-0.1,1.3-0.4c0.4-0.2,0.7-0.6,0.9-1c0.2-0.4,0.4-0.9,0.5-1.4c0-0.2,0.2-0.3,0.4-0.3
		c0.1,0,0.2,0,0.4,0.1c0.1,0,0.2,0.1,0.2,0.2l-0.2,2.4c0,0.1-0.2,0.2-0.5,0.4c-0.3,0.2-0.8,0.3-1.3,0.5c-0.5,0.1-1.1,0.2-1.7,0.2
		C97.6,25.3,96.6,25.1,95.6,24.7z"/>
	<path class="st0" d="M103.4,25c0-0.1-0.1-0.1-0.1-0.2c0-0.1,0-0.2,0.1-0.2c0,0,0.1-0.1,0.2-0.1c0.2,0,0.5-0.1,0.6-0.1
		s0.3-0.2,0.3-0.3l0-9.4c0-0.2,0-0.4-0.2-0.6c-0.1-0.1-0.2-0.2-0.4-0.3c-0.1,0-0.3-0.1-0.5-0.1c-0.2,0-0.3,0-0.3,0
		c-0.1,0-0.1-0.1-0.1-0.1c0,0,0-0.1,0-0.2c0-0.1,0-0.1,0.1-0.2c0-0.1,0.1-0.1,0.1-0.1c1.1-0.1,2.3-0.1,3.5-0.1c0.1,0,0.1,0,0.2,0.1
		c0.1,0,0.1,0.1,0.1,0.2v10.6c0,0.2,0,0.3,0.1,0.4c0.1,0.1,0.2,0.2,0.3,0.2c0.1,0,0.3,0.1,0.5,0.1c0.1,0,0.2,0,0.2,0.1
		s0.1,0.1,0.1,0.2c0,0.1,0,0.1-0.1,0.2c0,0.1-0.1,0.1-0.2,0.1h-4.3C103.5,25.1,103.4,25,103.4,25z"/>
	<path class="st0" d="M110.9,25.1c-0.4-0.1-0.7-0.4-0.9-0.7s-0.3-0.8-0.3-1.4v-4.3c0-0.2,0-0.4-0.1-0.5c-0.1-0.1-0.2-0.2-0.3-0.2
		c-0.1,0-0.3-0.1-0.4-0.1c-0.1,0-0.2,0-0.2-0.1c0,0-0.1-0.1-0.1-0.2c0-0.1,0-0.1,0.1-0.2c0-0.1,0.1-0.1,0.2-0.1h3.1
		c0.2,0,0.3,0.1,0.3,0.3v4.7c0,1.2,0.3,1.8,0.9,1.8c0.4,0,0.8-0.1,1.1-0.2c0.3-0.1,0.6-0.4,0.9-0.7v-4.6c0-0.2-0.1-0.4-0.2-0.5
		c-0.1-0.1-0.2-0.2-0.4-0.2c-0.1,0-0.3-0.1-0.6-0.1c-0.1,0-0.2,0-0.2-0.1c0,0-0.1-0.1-0.1-0.2c0-0.1,0-0.1,0.1-0.2
		c0-0.1,0.1-0.1,0.2-0.1h3.3c0.2,0,0.3,0.1,0.3,0.3v5.8c0,0.3,0,0.6,0.1,0.7c0.1,0.1,0.1,0.2,0.3,0.2c0.2,0,0.3,0,0.4-0.1
		c0.1,0,0.1,0,0.2,0.2c0.1,0.1,0.1,0.3,0.1,0.4c0,0.1,0,0.1,0,0.1c-0.2,0.1-0.5,0.2-0.8,0.3c-0.4,0.1-0.9,0.2-1.4,0.2
		c-0.5,0-0.8-0.1-0.9-0.4c-0.1-0.3-0.2-0.6-0.2-0.9c-0.2,0.2-0.4,0.5-0.7,0.7c-0.3,0.2-0.7,0.4-1,0.5c-0.4,0.1-0.8,0.2-1.1,0.2
		C111.8,25.3,111.3,25.2,110.9,25.1z"/>
	<path class="st0" d="M119.9,24.9V14.6c0-0.2,0-0.4-0.1-0.5s-0.2-0.2-0.3-0.2c-0.1,0-0.3-0.1-0.5-0.1c-0.2,0-0.3,0-0.3,0
		c-0.1,0-0.1-0.1-0.1-0.1c0,0,0-0.1,0-0.2c0-0.1,0-0.1,0.1-0.2c0-0.1,0.1-0.1,0.1-0.1c0.3,0,0.9-0.1,1.7-0.1c0.8,0,1.4,0,1.7,0
		c0.1,0,0.1,0,0.2,0.1c0,0.1,0.1,0.1,0.1,0.2c0,0,0,0.1,0,0.1V17l0,1.1c0.2-0.3,0.6-0.6,1.1-0.8c0.5-0.2,1-0.3,1.5-0.3
		c0.8,0,1.5,0.2,2,0.6c0.5,0.4,0.9,0.9,1.1,1.5s0.4,1.3,0.4,2.1c0,0.7-0.2,1.4-0.5,2c-0.3,0.6-0.8,1.1-1.4,1.5s-1.3,0.6-2.2,0.6
		c-1.4,0-2.5-0.2-3.2-0.5c-0.3,0.2-0.4,0.3-0.6,0.4c-0.1,0.1-0.2,0.1-0.2,0.1c-0.1,0-0.1,0-0.3,0C120,25.3,119.9,25.2,119.9,24.9z
		 M125.8,21.2c0-1-0.2-1.7-0.5-2.2s-0.8-0.8-1.5-0.8c-0.3,0-0.5,0.1-0.8,0.2c-0.3,0.1-0.5,0.3-0.6,0.5v4.8c0,0.1,0.1,0.2,0.3,0.3
		s0.3,0.2,0.5,0.3c0.2,0.1,0.4,0.1,0.5,0.1c0.8,0,1.3-0.3,1.6-0.8"/>
</g>
<g transform="translate(0,-952.36218)">
	<path class="st1" d="M135.3,961.5c-0.3,0-0.4,0.2-0.4,0.5c0,1.3,0.1,2.4,0.2,3.4c0,0,0,0.1,0,0.1c0.2,1.5,0.6,2.7,1.1,3.6
		c0.8,1.6,2,2.6,3.5,3.8v4.8H137c-0.4,0-0.4,0.2-0.4,0.4c0,0.2,0,0.4,0.4,0.4h3c0,0,0,0,0.1,0h3c0.4,0,0.4-0.2,0.4-0.4
		c0-0.2,0-0.4-0.4-0.4h-2.6v-4.7c1.5-1.2,2.7-2.2,3.5-3.8c0.5-1,0.9-2.2,1.1-3.7v0c0,0,0-0.1,0-0.1c0.1-1,0.2-2.1,0.2-3.4
		c0-0.3-0.2-0.4-0.5-0.4H135.3L135.3,961.5z M137.7,965.3c1,0,1.9,0.2,2.6,0.4c1.1,0.3,2,0.4,3.8,0.2c-0.2,1.2-0.5,2.1-0.9,2.8
		c-0.7,1.4-1.8,2.4-3.2,3.5c-1.4-1.1-2.5-2.1-3.2-3.5c-0.4-0.8-0.8-1.8-1-3.1C137.2,965.2,137.2,965.3,137.7,965.3z"/>
</g>
</svg>
