<svg width="152" height="154" viewBox="0 0 152 154" fill="none" xmlns="http://www.w3.org/2000/svg">
<rect width="152" height="154" rx="73" fill="#FDE5EA"/>
<g clip-path="url(#clip0_639_1435)">
<path d="M25.0113 113.391L37.1351 117.001C37.1391 117.003 37.1419 117.006 37.146 117.007C37.1514 117.009 37.157 117.008 37.1624 117.01L49.2886 120.621C49.5472 120.698 49.811 120.735 50.0695 120.735C51.2449 120.735 52.3296 119.974 52.6841 118.796C53.1158 117.36 52.295 115.845 50.8504 115.416L41.3271 112.58L45.1542 99.8465C46.1487 99.9998 47.1466 100.087 48.1426 100.087C51.3541 100.087 54.5337 99.2934 57.4361 97.7334C62.0523 95.2555 65.421 91.1354 66.9216 86.1292L76.3697 54.6674C76.4203 54.5533 76.4657 54.4366 76.5003 54.3172L78.5028 47.6368L90.0715 86.1372C92.6168 94.6029 100.444 100.087 108.901 100.087C109.877 100.087 110.861 100.003 111.846 99.8532L115.671 112.58L106.148 115.416C104.703 115.845 103.883 117.36 104.314 118.796C104.669 119.973 105.753 120.735 106.929 120.735C107.187 120.735 107.451 120.698 107.71 120.621L119.836 117.01C119.841 117.008 119.847 117.009 119.852 117.007C119.856 117.006 119.859 117.003 119.863 117.001L131.987 113.391C133.432 112.962 134.253 111.447 133.821 110.012C133.386 108.574 131.856 107.759 130.425 108.186L120.901 111.022L117.073 98.2854C120.94 96.5292 124.123 93.6034 126.177 89.8169C128.669 85.2193 129.21 79.9345 127.707 74.931L121.296 53.5977C121.285 53.5672 121.281 53.5354 121.269 53.5055L113.571 27.888C113.139 26.4501 111.604 25.6356 110.175 26.0628L78.478 35.5006L46.8339 26.0521C46.1409 25.8426 45.392 25.9169 44.755 26.2644C44.118 26.604 43.6436 27.185 43.4358 27.8747L35.739 53.491C35.7195 53.5381 35.7122 53.5881 35.6953 53.6365L29.2995 74.9229C28.9824 75.9709 28.7558 77.0294 28.6279 78.072C28.4467 79.5604 29.5127 80.9134 31.0106 81.0965C32.5218 81.2795 33.8677 80.2157 34.0489 78.7247C34.1369 77.9924 34.2968 77.2416 34.526 76.4855L40.3265 57.1807L70.1634 56.3629L61.6924 84.5745C60.6077 88.1879 58.177 91.1645 54.8455 92.9526C51.514 94.7434 47.6788 95.1308 44.0381 94.0483C42.0579 93.4673 40.2882 92.491 38.7797 91.1486C37.6603 90.1537 35.9332 90.2439 34.9258 91.3662C33.9237 92.4857 34.0196 94.2022 35.1443 95.2024C36.5789 96.4777 38.1883 97.4943 39.9264 98.2822L36.0971 111.022L26.573 108.186C25.1365 107.759 23.6093 108.574 23.1776 110.011C22.7458 111.447 23.5667 112.962 25.0113 113.391ZM121.372 87.2382C119.573 90.5543 116.585 92.9786 112.956 94.0587C112.955 94.059 112.953 94.0587 112.952 94.059C112.953 94.0588 112.952 94.0592 112.952 94.059C105.443 96.2769 97.5418 92.0335 95.3007 84.5799L86.8225 56.3626L116.675 57.1809L122.478 76.4883C123.565 80.1016 123.171 83.9193 121.372 87.2382ZM109.122 32.0479L115.028 51.6983L85.1751 50.8801L81.948 40.1396L109.122 32.0479ZM47.8814 32.0373L75.0505 40.1502L71.8352 50.8797L41.974 51.6982L47.8814 32.0373Z" fill="#8B2139"/>
<path d="M60.7996 19.5071C59.8801 20.6956 60.1066 22.4015 61.3033 23.3141L66.1673 27.0283C66.663 27.4077 67.2467 27.5908 67.8251 27.5908C68.6459 27.5908 69.4562 27.2246 69.9919 26.5269C70.9114 25.3384 70.6848 23.6325 69.4882 22.7199L64.6242 19.0057C63.4275 18.0904 61.7138 18.3185 60.7996 19.5071Z" fill="#8B2139"/>
<path d="M92.3743 19.0057L87.5103 22.7199C86.3137 23.6325 86.0871 25.3384 87.0066 26.5269C87.5423 27.2247 88.3525 27.5908 89.1734 27.5908C89.7518 27.5908 90.3355 27.4077 90.8312 27.0283L95.6952 23.3141C96.8919 22.4015 97.1184 20.6956 96.1989 19.5071C95.2874 18.3185 93.5764 18.0904 92.3743 19.0057Z" fill="#8B2139"/>
<path d="M75.7695 14.3817V19.8681C75.7695 21.3697 76.9902 22.5848 78.4987 22.5848C80.0072 22.5848 81.2279 21.3697 81.2279 19.8681V14.3817C81.2279 12.8801 80.0072 11.665 78.4987 11.665C76.9902 11.665 75.7695 12.8801 75.7695 14.3817Z" fill="#8B2139"/>
</g>
<defs>
<clipPath id="clip0_639_1435">
<rect width="111" height="109" fill="white" transform="translate(23 12)"/>
</clipPath>
</defs>
</svg>
