<svg id="Layer_1" data-name="Layer 1" xmlns="http://www.w3.org/2000/svg" viewBox="0 0 153.38 182.93"><path d="M176.3,96.2,165.65,77.76a2.94,2.94,0,0,0-1.08-1.08L103,41.1V11.48a2.95,2.95,0,1,0-5.9,0V41.1L35.43,76.68a2.94,2.94,0,0,0-1.08,1.08L23.7,96.2a3,3,0,0,0,1.08,4l9.18,5.3v46.56a2.94,2.94,0,0,0,1.47,2.55l63.09,36.43a2.91,2.91,0,0,0,1.48.4,3,3,0,0,0,1.47-.4l63.1-36.43a2.94,2.94,0,0,0,1.47-2.55V105.53l9.17-5.3A3,3,0,0,0,176.3,96.2ZM86.64,66.93l11,14.12A2.94,2.94,0,0,0,100,82.18a2.91,2.91,0,0,0,2.32-1.13l11-14.12a3,3,0,0,0-4.65-3.64L103,70.66V47.92l54.24,31.31-57.19,33-57.19-33L97.05,47.92V70.66l-5.76-7.37a3,3,0,0,0-4.65,3.64ZM30.29,96.59,38,83.26l58,33.48-7.7,13.33Zm9.57,12.34,48,27.73a3,3,0,0,0,4-1.08l5.14-8.91v56.74l-57.19-33Zm120.28,41.45-57.19,33V126.67l5.14,8.91a3,3,0,0,0,4,1.08l48-27.73Zm-48.41-20.31L104,116.74l58-33.48,7.7,13.33ZM70.5,20.18a3,3,0,0,1,5.11-2.95l9.25,16a3,3,0,0,1-1.08,4,2.89,2.89,0,0,1-1.47.39,3,3,0,0,1-2.56-1.47ZM50.77,37a3,3,0,0,1,4-1.08l16,9.25a3,3,0,0,1-1.48,5.51,2.9,2.9,0,0,1-1.47-.4L51.85,41A3,3,0,0,1,50.77,37Zm64.37-3.71,9.25-16a3,3,0,0,1,5.11,2.95l-9.25,16a3,3,0,0,1-2.56,1.48,2.9,2.9,0,0,1-1.47-.4A2.94,2.94,0,0,1,115.14,33.25Zm14,11.88,16-9.26a3,3,0,1,1,3,5.11l-16,9.26a2.89,2.89,0,0,1-1.47.39,2.95,2.95,0,0,1-1.48-5.5Z" transform="translate(-23.31 -8.53)"/></svg>