<svg width="93" height="116" viewBox="0 0 93 116" fill="none" xmlns="http://www.w3.org/2000/svg">
<path fill-rule="evenodd" clip-rule="evenodd" d="M13.8028 16.2257L23.8148 6.2497C25.0355 5.0317 26.6775 4.3502 28.4067 4.3502H37.8971L31.778 14.1232C31.7634 14.1232 31.7634 14.1377 31.7634 14.1522C31.3682 14.8105 31.0325 15.5065 30.7593 16.2257H13.8028ZM12.0213 19.1257C11.8469 19.7144 11.7539 20.3306 11.7539 20.9527V86.1012C11.7539 86.7247 12.0155 87.3192 12.4514 87.7687C12.8873 88.2037 13.4977 88.4502 14.1225 88.4502H45.1191C45.0712 88.3052 45.045 88.1529 45.045 88.0007V62.9882L36.8058 71.2097C36.5442 71.4707 36.1664 71.6302 35.7886 71.6302C35.3962 71.6302 35.033 71.4707 34.7569 71.2097C34.4808 70.9342 34.3355 70.5717 34.3355 70.1802C34.3355 69.8032 34.4808 69.4262 34.7569 69.1507L45.4664 58.4642C45.7425 58.1887 46.1058 58.0437 46.4981 58.0437C46.8905 58.0437 47.2537 58.1887 47.5298 58.4642L58.2394 69.1507C58.5155 69.4262 58.6608 69.8032 58.6608 70.1802C58.6608 70.5717 58.5155 70.9342 58.2394 71.2097C57.9633 71.4707 57.6 71.6302 57.2077 71.6302C56.8298 71.6302 56.452 71.4707 56.1905 71.2097L47.9512 62.9882V88.0007C47.9512 88.1529 47.9251 88.3052 47.8771 88.4502H78.8737C79.4986 88.4502 80.1089 88.2037 80.5448 87.7687C80.9808 87.3192 81.2423 86.7247 81.2423 86.1012V20.9817C81.2205 20.3466 81.1028 19.7202 80.9023 19.1257H63.026C63.1233 19.7202 63.18 20.3205 63.1945 20.9237C63.1945 20.9382 63.1945 20.9527 63.1945 20.9527V46.2697C63.2091 46.8352 63.0347 47.4007 62.6859 47.8647C62.2791 48.3867 61.6397 48.6912 60.9712 48.6767C60.5208 48.6622 60.0848 48.5317 59.6925 48.3142L48.3291 41.8762C47.7623 41.5862 47.1375 41.4412 46.4981 41.4702C45.8587 41.4412 45.2339 41.5862 44.6672 41.8762L33.3037 48.3142C32.9114 48.5317 32.4755 48.6622 32.025 48.6767C31.3566 48.6912 30.7172 48.3867 30.3103 47.8647C29.9616 47.4007 29.7872 46.8352 29.8017 46.2697V20.9527C29.8017 20.9527 29.8017 20.9382 29.8017 20.9237C29.8162 20.3205 29.8729 19.7202 29.9703 19.1257H12.0213ZM79.1934 16.2257L69.1959 6.2642C68.5711 5.6697 67.8445 5.2202 67.0453 4.9157C66.2606 4.5677 65.4323 4.3792 64.575 4.3502H55.0992L61.2183 14.1232C61.2328 14.1232 61.2328 14.1377 61.2328 14.1522C61.6281 14.8105 61.9637 15.5065 62.2369 16.2257H79.1934ZM59.0691 16.2257C58.9688 16.0285 58.8613 15.8356 58.748 15.6457L51.6712 4.3502H41.325L34.2483 15.6457C34.1349 15.8356 34.0274 16.0285 33.9271 16.2257H59.0691ZM60.0674 19.1257C60.1982 19.7303 60.2694 20.3495 60.2883 20.9672V45.3127L49.7386 39.3387C49.7386 39.3387 49.7241 39.3387 49.7095 39.3242C48.7214 38.8022 47.617 38.5412 46.4981 38.5702C45.3792 38.5412 44.2748 38.8022 43.2867 39.3242C43.2722 39.3387 43.2577 39.3387 43.2577 39.3387L32.708 45.3127V20.9672C32.7269 20.3495 32.7981 19.7303 32.9288 19.1257H60.0674ZM45.4664 58.4642C45.7425 58.1887 46.1058 58.0437 46.4981 58.0437C46.8905 58.0437 47.2537 58.1887 47.5298 58.4642H45.4664ZM39.712 1.4502H28.4067C25.9073 1.4502 23.5242 2.4362 21.7514 4.1907L11.6086 14.3262C9.85031 16.0807 8.84766 18.4732 8.84766 20.9527V86.1012C8.84766 87.4932 9.41437 88.8272 10.4025 89.8132C11.3761 90.7992 12.7275 91.3502 14.1225 91.3502H78.8737C80.2687 91.3502 81.6202 90.7992 82.5937 89.8132C83.5819 88.8272 84.1486 87.4932 84.1486 86.1012V20.9527C84.1486 20.9382 84.1486 20.9382 84.1486 20.9237C84.105 19.7057 83.8434 18.5167 83.3494 17.4002C82.9134 16.2692 82.2595 15.2397 81.4167 14.3552C81.4022 14.3407 81.4022 14.3407 81.3876 14.3262L71.2448 4.1907C71.2303 4.1907 71.2158 4.1762 71.2158 4.1762C70.3294 3.3352 69.2977 2.6827 68.1642 2.2332C67.0453 1.7547 65.8537 1.4792 64.6331 1.4502C64.6186 1.4502 64.6041 1.4502 64.5895 1.4502H53.2842H39.712Z" fill="#FFDCF9"/>
<path d="M45.4664 58.4642L34.7569 69.1507C34.4808 69.4262 34.3355 69.8032 34.3355 70.1802C34.3355 70.5717 34.4808 70.9342 34.7569 71.2097C35.033 71.4707 35.3962 71.6302 35.7886 71.6302C36.1664 71.6302 36.5442 71.4707 36.8058 71.2097L45.045 62.9882V88.0007C45.045 88.1529 45.0712 88.3052 45.1191 88.4502H14.1225C13.4977 88.4502 12.8873 88.2037 12.4514 87.7687C12.0155 87.3192 11.7539 86.7247 11.7539 86.1012V20.9527C11.7539 20.3306 11.8469 19.7144 12.0213 19.1257H29.9703C29.8729 19.7202 29.8162 20.3205 29.8017 20.9237C29.8017 20.9382 29.8017 20.9527 29.8017 20.9527V46.2697C29.7872 46.8352 29.9616 47.4007 30.3103 47.8647C30.7172 48.3867 31.3566 48.6912 32.025 48.6767C32.4755 48.6622 32.9114 48.5317 33.3037 48.3142L44.6672 41.8762C45.2339 41.5862 45.8587 41.4412 46.4981 41.4702C47.1375 41.4412 47.7623 41.5862 48.3291 41.8762L59.6925 48.3142C60.0848 48.5317 60.5208 48.6622 60.9712 48.6767C61.6397 48.6912 62.2791 48.3867 62.6859 47.8647C63.0347 47.4007 63.2091 46.8352 63.1945 46.2697V20.9527C63.1945 20.9527 63.1945 20.9382 63.1945 20.9237C63.18 20.3205 63.1233 19.7202 63.026 19.1257H80.9023C81.1028 19.7202 81.2205 20.3466 81.2423 20.9817V86.1012C81.2423 86.7247 80.9808 87.3192 80.5448 87.7687C80.1089 88.2037 79.4986 88.4502 78.8737 88.4502H47.8771C47.9251 88.3052 47.9512 88.1529 47.9512 88.0007V62.9882L56.1905 71.2097C56.452 71.4707 56.8298 71.6302 57.2077 71.6302C57.6 71.6302 57.9633 71.4707 58.2394 71.2097C58.5155 70.9342 58.6608 70.5717 58.6608 70.1802C58.6608 69.8032 58.5155 69.4262 58.2394 69.1507L47.5298 58.4642M45.4664 58.4642C45.7425 58.1887 46.1058 58.0437 46.4981 58.0437C46.8905 58.0437 47.2537 58.1887 47.5298 58.4642M45.4664 58.4642H47.5298M13.8028 16.2257L23.8148 6.2497C25.0355 5.0317 26.6775 4.3502 28.4067 4.3502H37.8971L31.778 14.1232C31.7634 14.1232 31.7634 14.1377 31.7634 14.1522C31.3682 14.8105 31.0325 15.5065 30.7593 16.2257H13.8028ZM79.1934 16.2257L69.1959 6.2642C68.5711 5.6697 67.8445 5.2202 67.0453 4.9157C66.2606 4.5677 65.4323 4.3792 64.575 4.3502H55.0992L61.2183 14.1232C61.2328 14.1232 61.2328 14.1377 61.2328 14.1522C61.6281 14.8105 61.9637 15.5065 62.2369 16.2257H79.1934ZM59.0691 16.2257C58.9688 16.0285 58.8613 15.8356 58.748 15.6457L51.6712 4.3502H41.325L34.2483 15.6457C34.1349 15.8356 34.0274 16.0285 33.9271 16.2257H59.0691ZM60.0674 19.1257C60.1982 19.7303 60.2694 20.3495 60.2883 20.9672V45.3127L49.7386 39.3387C49.7386 39.3387 49.7241 39.3387 49.7095 39.3242C48.7214 38.8022 47.617 38.5412 46.4981 38.5702C45.3792 38.5412 44.2748 38.8022 43.2867 39.3242C43.2722 39.3387 43.2577 39.3387 43.2577 39.3387L32.708 45.3127V20.9672C32.7269 20.3495 32.7981 19.7303 32.9288 19.1257H60.0674ZM39.712 1.4502H28.4067C25.9073 1.4502 23.5242 2.4362 21.7514 4.1907L11.6086 14.3262C9.85031 16.0807 8.84766 18.4732 8.84766 20.9527V86.1012C8.84766 87.4932 9.41437 88.8272 10.4025 89.8132C11.3761 90.7992 12.7275 91.3502 14.1225 91.3502H78.8737C80.2687 91.3502 81.6202 90.7992 82.5937 89.8132C83.5819 88.8272 84.1486 87.4932 84.1486 86.1012V20.9527C84.1486 20.9382 84.1486 20.9382 84.1486 20.9237C84.105 19.7057 83.8434 18.5167 83.3494 17.4002C82.9134 16.2692 82.2595 15.2397 81.4167 14.3552C81.4022 14.3407 81.4022 14.3407 81.3876 14.3262L71.2448 4.1907C71.2303 4.1907 71.2158 4.1762 71.2158 4.1762C70.3294 3.3352 69.2977 2.6827 68.1642 2.2332C67.0453 1.7547 65.8537 1.4792 64.6331 1.4502C64.6186 1.4502 64.6041 1.4502 64.5895 1.4502H53.2842H39.712Z" stroke="#FFDCF9"/>
</svg>
