<svg width="152" height="154" viewBox="0 0 152 154" fill="none" xmlns="http://www.w3.org/2000/svg">
<rect width="152" height="154" rx="73" fill="#FDE5EA"/>
<path fill-rule="evenodd" clip-rule="evenodd" d="M42.8028 47.2257L52.8148 37.2497C54.0355 36.0317 55.6775 35.3502 57.4067 35.3502H66.8971L60.778 45.1232C60.7634 45.1232 60.7634 45.1377 60.7634 45.1522C60.3682 45.8105 60.0325 46.5065 59.7593 47.2257H42.8028ZM41.0213 50.1257C40.8469 50.7144 40.7539 51.3306 40.7539 51.9527V117.101C40.7539 117.725 41.0155 118.319 41.4514 118.769C41.8873 119.204 42.4977 119.45 43.1225 119.45H74.1191C74.0712 119.305 74.045 119.153 74.045 119.001V93.9882L65.8058 102.21C65.5442 102.471 65.1664 102.63 64.7886 102.63C64.3962 102.63 64.033 102.471 63.7569 102.21C63.4808 101.934 63.3355 101.572 63.3355 101.18C63.3355 100.803 63.4808 100.426 63.7569 100.151L74.4664 89.4642C74.7425 89.1887 75.1058 89.0437 75.4981 89.0437C75.8905 89.0437 76.2537 89.1887 76.5298 89.4642L87.2394 100.151C87.5155 100.426 87.6608 100.803 87.6608 101.18C87.6608 101.572 87.5155 101.934 87.2394 102.21C86.9633 102.471 86.6 102.63 86.2077 102.63C85.8298 102.63 85.452 102.471 85.1905 102.21L76.9512 93.9882V119.001C76.9512 119.153 76.9251 119.305 76.8771 119.45H107.874C108.499 119.45 109.109 119.204 109.545 118.769C109.981 118.319 110.242 117.725 110.242 117.101V51.9817C110.221 51.3466 110.103 50.7202 109.902 50.1257H92.026C92.1233 50.7202 92.18 51.3205 92.1945 51.9237C92.1945 51.9382 92.1945 51.9527 92.1945 51.9527V77.2697C92.2091 77.8352 92.0347 78.4007 91.6859 78.8647C91.2791 79.3867 90.6397 79.6912 89.9712 79.6767C89.5208 79.6622 89.0848 79.5317 88.6925 79.3142L77.3291 72.8762C76.7623 72.5862 76.1375 72.4412 75.4981 72.4702C74.8587 72.4412 74.2339 72.5862 73.6672 72.8762L62.3037 79.3142C61.9114 79.5317 61.4755 79.6622 61.025 79.6767C60.3566 79.6912 59.7172 79.3867 59.3103 78.8647C58.9616 78.4007 58.7872 77.8352 58.8017 77.2697V51.9527C58.8017 51.9527 58.8017 51.9382 58.8017 51.9237C58.8162 51.3205 58.8729 50.7202 58.9703 50.1257H41.0213ZM108.193 47.2257L98.1959 37.2642C97.5711 36.6697 96.8445 36.2202 96.0453 35.9157C95.2606 35.5677 94.4323 35.3792 93.575 35.3502H84.0992L90.2183 45.1232C90.2328 45.1232 90.2328 45.1377 90.2328 45.1522C90.6281 45.8105 90.9637 46.5065 91.2369 47.2257H108.193ZM88.0691 47.2257C87.9688 47.0285 87.8613 46.8356 87.748 46.6457L80.6712 35.3502H70.325L63.2483 46.6457C63.1349 46.8356 63.0274 47.0285 62.9271 47.2257H88.0691ZM89.0674 50.1257C89.1982 50.7303 89.2694 51.3495 89.2883 51.9672V76.3127L78.7386 70.3387C78.7386 70.3387 78.7241 70.3387 78.7095 70.3242C77.7214 69.8022 76.617 69.5412 75.4981 69.5702C74.3792 69.5412 73.2748 69.8022 72.2867 70.3242C72.2722 70.3387 72.2577 70.3387 72.2577 70.3387L61.708 76.3127V51.9672C61.7269 51.3495 61.7981 50.7303 61.9288 50.1257H89.0674ZM74.4664 89.4642C74.7425 89.1887 75.1058 89.0437 75.4981 89.0437C75.8905 89.0437 76.2537 89.1887 76.5298 89.4642H74.4664ZM68.712 32.4502H57.4067C54.9073 32.4502 52.5242 33.4362 50.7514 35.1907L40.6086 45.3262C38.8503 47.0807 37.8477 49.4732 37.8477 51.9527V117.101C37.8477 118.493 38.4144 119.827 39.4025 120.813C40.3761 121.799 41.7275 122.35 43.1225 122.35H107.874C109.269 122.35 110.62 121.799 111.594 120.813C112.582 119.827 113.149 118.493 113.149 117.101V51.9527C113.149 51.9382 113.149 51.9382 113.149 51.9237C113.105 50.7057 112.843 49.5167 112.349 48.4002C111.913 47.2692 111.26 46.2397 110.417 45.3552C110.402 45.3407 110.402 45.3407 110.388 45.3262L100.245 35.1907C100.23 35.1907 100.216 35.1762 100.216 35.1762C99.3294 34.3352 98.2977 33.6827 97.1642 33.2332C96.0453 32.7547 94.8537 32.4792 93.6331 32.4502C93.6186 32.4502 93.6041 32.4502 93.5895 32.4502H82.2842H68.712Z" fill="#8B2139"/>
<path d="M74.4664 89.4642L63.7569 100.151C63.4808 100.426 63.3355 100.803 63.3355 101.18C63.3355 101.572 63.4808 101.934 63.7569 102.21C64.033 102.471 64.3962 102.63 64.7886 102.63C65.1664 102.63 65.5442 102.471 65.8058 102.21L74.045 93.9882V119.001C74.045 119.153 74.0712 119.305 74.1191 119.45H43.1225C42.4977 119.45 41.8873 119.204 41.4514 118.769C41.0155 118.319 40.7539 117.725 40.7539 117.101V51.9527C40.7539 51.3306 40.8469 50.7144 41.0213 50.1257H58.9703C58.8729 50.7202 58.8162 51.3205 58.8017 51.9237C58.8017 51.9382 58.8017 51.9527 58.8017 51.9527V77.2697C58.7872 77.8352 58.9616 78.4007 59.3103 78.8647C59.7172 79.3867 60.3566 79.6912 61.025 79.6767C61.4755 79.6622 61.9114 79.5317 62.3037 79.3142L73.6672 72.8762C74.2339 72.5862 74.8587 72.4412 75.4981 72.4702C76.1375 72.4412 76.7623 72.5862 77.3291 72.8762L88.6925 79.3142C89.0848 79.5317 89.5208 79.6622 89.9712 79.6767C90.6397 79.6912 91.2791 79.3867 91.6859 78.8647C92.0347 78.4007 92.2091 77.8352 92.1945 77.2697V51.9527C92.1945 51.9527 92.1945 51.9382 92.1945 51.9237C92.18 51.3205 92.1233 50.7202 92.026 50.1257H109.902C110.103 50.7202 110.221 51.3466 110.242 51.9817V117.101C110.242 117.725 109.981 118.319 109.545 118.769C109.109 119.204 108.499 119.45 107.874 119.45H76.8771C76.9251 119.305 76.9512 119.153 76.9512 119.001V93.9882L85.1905 102.21C85.452 102.471 85.8298 102.63 86.2077 102.63C86.6 102.63 86.9633 102.471 87.2394 102.21C87.5155 101.934 87.6608 101.572 87.6608 101.18C87.6608 100.803 87.5155 100.426 87.2394 100.151L76.5298 89.4642M74.4664 89.4642C74.7425 89.1887 75.1058 89.0437 75.4981 89.0437C75.8905 89.0437 76.2537 89.1887 76.5298 89.4642M74.4664 89.4642H76.5298M42.8028 47.2257L52.8148 37.2497C54.0355 36.0317 55.6775 35.3502 57.4067 35.3502H66.8971L60.778 45.1232C60.7634 45.1232 60.7634 45.1377 60.7634 45.1522C60.3682 45.8105 60.0325 46.5065 59.7593 47.2257H42.8028ZM108.193 47.2257L98.1959 37.2642C97.5711 36.6697 96.8445 36.2202 96.0453 35.9157C95.2606 35.5677 94.4323 35.3792 93.575 35.3502H84.0992L90.2183 45.1232C90.2328 45.1232 90.2328 45.1377 90.2328 45.1522C90.6281 45.8105 90.9637 46.5065 91.2369 47.2257H108.193ZM88.0691 47.2257C87.9688 47.0285 87.8613 46.8356 87.748 46.6457L80.6712 35.3502H70.325L63.2483 46.6457C63.1349 46.8356 63.0274 47.0285 62.9271 47.2257H88.0691ZM89.0674 50.1257C89.1982 50.7303 89.2694 51.3495 89.2883 51.9672V76.3127L78.7386 70.3387C78.7386 70.3387 78.7241 70.3387 78.7095 70.3242C77.7214 69.8022 76.617 69.5412 75.4981 69.5702C74.3792 69.5412 73.2748 69.8022 72.2867 70.3242C72.2722 70.3387 72.2577 70.3387 72.2577 70.3387L61.708 76.3127V51.9672C61.7269 51.3495 61.7981 50.7303 61.9288 50.1257H89.0674ZM68.712 32.4502H57.4067C54.9073 32.4502 52.5242 33.4362 50.7514 35.1907L40.6086 45.3262C38.8503 47.0807 37.8477 49.4732 37.8477 51.9527V117.101C37.8477 118.493 38.4144 119.827 39.4025 120.813C40.3761 121.799 41.7275 122.35 43.1225 122.35H107.874C109.269 122.35 110.62 121.799 111.594 120.813C112.582 119.827 113.149 118.493 113.149 117.101V51.9527C113.149 51.9382 113.149 51.9382 113.149 51.9237C113.105 50.7057 112.843 49.5167 112.349 48.4002C111.913 47.2692 111.26 46.2397 110.417 45.3552C110.402 45.3407 110.402 45.3407 110.388 45.3262L100.245 35.1907C100.23 35.1907 100.216 35.1762 100.216 35.1762C99.3294 34.3352 98.2977 33.6827 97.1642 33.2332C96.0453 32.7547 94.8537 32.4792 93.6331 32.4502C93.6186 32.4502 93.6041 32.4502 93.5895 32.4502H82.2842H68.712Z" stroke="#8B2139" stroke-width="1.5"/>
</svg>
