<svg width="131" height="163" viewBox="0 0 131 163" fill="none" xmlns="http://www.w3.org/2000/svg">
<path d="M12.0113 112.391L24.1351 116.001C24.1391 116.003 24.1419 116.006 24.146 116.007C24.1514 116.009 24.157 116.008 24.1624 116.01L36.2886 119.621C36.5472 119.698 36.811 119.735 37.0695 119.735C38.2449 119.735 39.3296 118.974 39.6841 117.796C40.1158 116.36 39.295 114.845 37.8504 114.416L28.3271 111.58L32.1542 98.8465C33.1487 98.9998 34.1466 99.0866 35.1426 99.0866C38.3541 99.0866 41.5337 98.2934 44.4361 96.7334C49.0522 94.2555 52.4211 90.1354 53.9216 85.1292L63.3697 53.6674C63.4203 53.5533 63.4657 53.4366 63.5003 53.3172L65.5028 46.6368L77.0715 85.1372C79.6168 93.6029 87.4444 99.0867 95.9011 99.0867C96.8766 99.0867 97.8607 99.0033 98.8462 98.8532L102.671 111.58L93.148 114.416C91.7034 114.845 90.8825 116.36 91.3143 117.796C91.6688 118.973 92.7535 119.735 93.9289 119.735C94.1874 119.735 94.4512 119.698 94.7098 119.621L106.836 116.01C106.841 116.008 106.847 116.009 106.852 116.007C106.856 116.006 106.859 116.003 106.863 116.001L118.987 112.391C120.432 111.962 121.253 110.447 120.821 109.012C120.386 107.574 118.856 106.759 117.425 107.186L107.901 110.022L104.073 97.2854C107.94 95.5292 111.123 92.6034 113.177 88.8169C115.669 84.2193 116.21 78.9345 114.707 73.931L108.296 52.5977C108.285 52.5672 108.281 52.5354 108.269 52.5055L100.571 26.888C100.139 25.4501 98.6037 24.6356 97.1751 25.0628L65.478 34.5006L33.8339 25.0521C33.1409 24.8426 32.392 24.9169 31.755 25.2644C31.118 25.604 30.6436 26.185 30.4358 26.8747L22.739 52.491C22.7195 52.5381 22.7122 52.5881 22.6953 52.6365L16.2995 73.9229C15.9824 74.9709 15.7558 76.0294 15.6279 77.072C15.4467 78.5604 16.5127 79.9134 18.0106 80.0965C19.5218 80.2795 20.8677 79.2157 21.0489 77.7247C21.1369 76.9925 21.2968 76.2416 21.526 75.4855L27.3265 56.1807L57.1634 55.3629L48.6924 83.5745C47.6077 87.1879 45.177 90.1645 41.8455 91.9526C38.514 93.7434 34.6788 94.1308 31.0381 93.0483C29.0579 92.4673 27.2882 91.491 25.7797 90.1486C24.6603 89.1537 22.9332 89.2439 21.9258 90.3662C20.9237 91.4857 21.0196 93.2022 22.1443 94.2024C23.5789 95.4777 25.1883 96.4943 26.9264 97.2822L23.0971 110.022L13.573 107.186C12.1365 106.759 10.6093 107.574 10.1776 109.011C9.74581 110.447 10.5667 111.962 12.0113 112.391ZM108.372 86.2382C106.573 89.5543 103.585 91.9786 99.9558 93.0587C99.9546 93.059 99.9535 93.0587 99.9523 93.059C99.9518 93.0592 99.9528 93.0588 99.9523 93.059C92.4428 95.2769 84.5418 91.0335 82.3007 83.5799L73.8225 55.3626L103.675 56.1809L109.478 75.4883C110.565 79.1016 110.171 82.9193 108.372 86.2382ZM96.1224 31.0479L102.028 50.6983L72.1751 49.8801L68.948 39.1396L96.1224 31.0479ZM34.8814 31.0373L62.0505 39.1502L58.8352 49.8797L28.974 50.6982L34.8814 31.0373Z" fill="#FFDCF9"/>
<path d="M47.7996 18.5071C46.8801 19.6956 47.1066 21.4015 48.3033 22.3141L53.1673 26.0283C53.663 26.4077 54.2467 26.5908 54.8251 26.5908C55.6459 26.5908 56.4562 26.2246 56.9919 25.5269C57.9114 24.3384 57.6848 22.6325 56.4882 21.7199L51.6242 18.0057C50.4275 17.0904 48.7138 17.3185 47.7996 18.5071Z" fill="#FFDCF9"/>
<path d="M79.3743 18.0057L74.5103 21.7199C73.3137 22.6325 73.0871 24.3384 74.0066 25.5269C74.5423 26.2247 75.3525 26.5908 76.1734 26.5908C76.7518 26.5908 77.3355 26.4077 77.8312 26.0283L82.6952 22.3141C83.8919 21.4015 84.1184 19.6956 83.1989 18.5071C82.2874 17.3185 80.5764 17.0904 79.3743 18.0057Z" fill="#FFDCF9"/>
<path d="M62.7695 13.3817V18.8681C62.7695 20.3697 63.9902 21.5848 65.4987 21.5848C67.0072 21.5848 68.2279 20.3697 68.2279 18.8681V13.3817C68.2279 11.8801 67.0072 10.665 65.4987 10.665C63.9902 10.665 62.7695 11.8801 62.7695 13.3817Z" fill="#FFDCF9"/>
</svg>
