<svg width="132" height="84" viewBox="0 0 132 84" fill="none" xmlns="http://www.w3.org/2000/svg">
<path d="M130.983 41.6059L114.709 19.2616C113.611 17.7512 112.174 16.5191 110.514 15.6641C108.854 14.8092 107.017 14.3552 105.149 14.3386H93.2006V7.16932C93.2006 5.2679 92.4453 3.44435 91.1008 2.09984C89.7563 0.755336 87.9327 0 86.0313 0H33.4563C32.8225 0 32.2147 0.251779 31.7665 0.699949C31.3183 1.14812 31.0665 1.75597 31.0665 2.38977C31.0665 3.02358 31.3183 3.63143 31.7665 4.0796C32.2147 4.52777 32.8225 4.77955 33.4563 4.77955H86.0313C86.6651 4.77955 87.273 5.03132 87.7211 5.47949C88.1693 5.92766 88.4211 6.53551 88.4211 7.16932V50.1852H11.9484C11.3146 50.1852 10.7067 50.437 10.2585 50.8852C9.81037 51.3333 9.55859 51.9412 9.55859 52.575C9.55859 53.2088 9.81037 53.8167 10.2585 54.2648C10.7067 54.713 11.3146 54.9648 11.9484 54.9648H25.2116V62.1341C25.2116 64.0355 25.9669 65.8591 27.3115 67.2036C28.656 68.5481 30.4795 69.3034 32.3809 69.3034H33.4563C33.4318 69.7013 33.4318 70.1004 33.4563 70.4983C33.4563 73.9842 34.8411 77.3274 37.306 79.7923C39.771 82.2573 43.1141 83.642 46.6001 83.642C50.086 83.642 53.4292 82.2573 55.8941 79.7923C58.359 77.3274 59.7438 73.9842 59.7438 70.4983C59.7683 70.1004 59.7683 69.7013 59.7438 69.3034H95.5904C95.5659 69.7013 95.5659 70.1004 95.5904 70.4983C95.5904 73.9842 96.9752 77.3274 99.4401 79.7923C101.905 82.2573 105.248 83.642 108.734 83.642C112.22 83.642 115.563 82.2573 118.028 79.7923C120.493 77.3274 121.878 73.9842 121.878 70.4983C121.902 70.1004 121.902 69.7013 121.878 69.3034H124.268C126.169 69.3034 127.993 68.5481 129.337 67.2036C130.682 65.8591 131.437 64.0355 131.437 62.1341V43.0159C131.413 42.5141 131.256 42.0276 130.983 41.6059ZM110.861 22.0815L124.268 40.6261H105.149V19.1182C106.267 19.133 107.365 19.4086 108.356 19.9231C109.348 20.4376 110.206 21.1767 110.861 22.0815ZM46.6001 78.8625C44.9458 78.8625 43.3287 78.3719 41.9532 77.4529C40.5777 76.5338 39.5056 75.2275 38.8726 73.6991C38.2395 72.1708 38.0738 70.489 38.3966 68.8665C38.7193 67.244 39.5159 65.7537 40.6857 64.5839C41.8554 63.4142 43.3458 62.6175 44.9683 62.2948C46.5908 61.9721 48.2726 62.1377 49.8009 62.7708C51.3293 63.4038 52.6356 64.4759 53.5546 65.8514C54.4737 67.2269 54.9643 68.844 54.9643 70.4983C54.9643 72.7166 54.083 74.8441 52.5145 76.4127C50.9459 77.9813 48.8184 78.8625 46.6001 78.8625ZM46.6001 57.3545C44.1805 57.3558 41.8085 58.0261 39.7461 59.2913C37.6838 60.5566 36.0115 62.3675 34.9141 64.5239H32.3809C31.7471 64.5239 31.1393 64.2721 30.6911 63.8239C30.2429 63.3757 29.9911 62.7679 29.9911 62.1341V54.9648H88.4211V64.5239H58.2861C57.1887 62.3675 55.5164 60.5566 53.454 59.2913C51.3917 58.0261 49.0196 57.3558 46.6001 57.3545ZM108.734 78.8625C107.08 78.8625 105.463 78.3719 104.087 77.4529C102.712 76.5338 101.64 75.2275 101.007 73.6991C100.374 72.1708 100.208 70.489 100.531 68.8665C100.853 67.244 101.65 65.7537 102.82 64.5839C103.99 63.4142 105.48 62.6175 107.102 62.2948C108.725 61.9721 110.407 62.1377 111.935 62.7708C113.463 63.4038 114.77 64.4759 115.689 65.8514C116.608 67.2269 117.098 68.844 117.098 70.4983C117.098 72.7166 116.217 74.8441 114.649 76.4127C113.08 77.9813 110.952 78.8625 108.734 78.8625ZM124.268 64.5239H120.42C119.321 62.37 117.648 60.5618 115.586 59.299C113.523 58.0362 111.152 57.3679 108.734 57.3679C106.316 57.3679 103.945 58.0362 101.883 59.299C99.8205 60.5618 98.1474 62.37 97.0482 64.5239H93.2006V19.1182H100.37V43.0159C100.37 43.6497 100.622 44.2576 101.07 44.7057C101.518 45.1539 102.126 45.4057 102.76 45.4057H126.657V62.1341C126.657 62.7679 126.406 63.3757 125.958 63.8239C125.509 64.2721 124.901 64.5239 124.268 64.5239Z" fill="#A74600"/>
<path d="M14.339 4.77955H26.2879C26.9217 4.77955 27.5295 4.52777 27.9777 4.0796C28.4258 3.63143 28.6776 3.02358 28.6776 2.38977C28.6776 1.75597 28.4258 1.14812 27.9777 0.699949C27.5295 0.251779 26.9217 0 26.2879 0H14.339C13.7052 0 13.0973 0.251779 12.6492 0.699949C12.201 1.14812 11.9492 1.75597 11.9492 2.38977C11.9492 3.02358 12.201 3.63143 12.6492 4.0796C13.0973 4.52777 13.7052 4.77955 14.339 4.77955Z" fill="#A74600"/>
<path d="M28.6773 14.339C28.6773 13.7052 28.4255 13.0973 27.9773 12.6492C27.5292 12.201 26.9213 11.9492 26.2875 11.9492H2.38977C1.75597 11.9492 1.14812 12.201 0.699949 12.6492C0.251779 13.0973 0 13.7052 0 14.339C0 14.9728 0.251779 15.5806 0.699949 16.0288C1.14812 16.477 1.75597 16.7288 2.38977 16.7288H26.2875C26.9213 16.7288 27.5292 16.477 27.9773 16.0288C28.4255 15.5806 28.6773 14.9728 28.6773 14.339Z" fill="#A74600"/>
<path d="M16.7285 26.2872C16.7285 26.921 16.9803 27.5289 17.4285 27.9771C17.8766 28.4252 18.4845 28.677 19.1183 28.677H33.4569C34.0907 28.677 34.6986 28.4252 35.1468 27.9771C35.5949 27.5289 35.8467 26.921 35.8467 26.2872C35.8467 25.6534 35.5949 25.0456 35.1468 24.5974C34.6986 24.1492 34.0907 23.8975 33.4569 23.8975H19.1183C18.4845 23.8975 17.8766 24.1492 17.4285 24.5974C16.9803 25.0456 16.7285 25.6534 16.7285 26.2872Z" fill="#A74600"/>
<path d="M40.6267 43.0159C41.2606 43.0159 41.8684 42.7641 42.3166 42.3159C42.7647 41.8678 43.0165 41.2599 43.0165 40.6261C43.0165 39.9923 42.7647 39.3844 42.3166 38.9363C41.8684 38.4881 41.2606 38.2363 40.6267 38.2363H9.55969C8.92589 38.2363 8.31804 38.4881 7.86987 38.9363C7.4217 39.3844 7.16992 39.9923 7.16992 40.6261C7.16992 41.2599 7.4217 41.8678 7.86987 42.3159C8.31804 42.7641 8.92589 43.0159 9.55969 43.0159H40.6267Z" fill="#A74600"/>
<path d="M11.9486 28.677C12.5824 28.677 13.1903 28.4252 13.6384 27.9771C14.0866 27.5289 14.3384 26.921 14.3384 26.2872C14.3384 25.6534 14.0866 25.0456 13.6384 24.5974C13.1903 24.1492 12.5824 23.8975 11.9486 23.8975H7.16907C6.53526 23.8975 5.92741 24.1492 5.47925 24.5974C5.03108 25.0456 4.7793 25.6534 4.7793 26.2872C4.7793 26.921 5.03108 27.5289 5.47925 27.9771C5.92741 28.4252 6.53526 28.677 7.16907 28.677H11.9486Z" fill="#A74600"/>
</svg>
