<svg id="Layer_3" data-name="Layer 3" xmlns="http://www.w3.org/2000/svg" viewBox="0 0 156.71 176.4"><path d="M51.3,144.25a17.28,17.28,0,0,0,10.51-3.65,13,13,0,0,0,2.51-2.52,2.39,2.39,0,0,0,0-3L46.5,112.26a2.18,2.18,0,0,0-2.74-.68,12.47,12.47,0,0,0-3.2,2,16.23,16.23,0,0,0-6.4,11.43,16.81,16.81,0,0,0,3.66,12.57A16.18,16.18,0,0,0,49.24,144,6.31,6.31,0,0,0,51.3,144.25Zm-10-9.37a12.42,12.42,0,0,1,2-17.59c.23-.23.46-.46.69-.46l15.54,19.65c-.23.23-.46.23-.46.46a13.48,13.48,0,0,1-9.14,2.74A14.29,14.29,0,0,1,41.25,134.88Z" transform="translate(-23.61 -6.93)"/><path d="M45.82,128.49l-1.38,1.14a2.45,2.45,0,0,0-.45,3.2,2.78,2.78,0,0,0,1.83.91,3.4,3.4,0,0,0,1.37-.45l1.37-1.15a2.45,2.45,0,0,0,.45-3.2A2.24,2.24,0,0,0,45.82,128.49Z" transform="translate(-23.61 -6.93)"/><path d="M51.76,138.08h0A2.28,2.28,0,0,0,54,135.8v-2.51A2.45,2.45,0,0,0,51.76,131h0a2.29,2.29,0,0,0-2.29,2.29v2.51A2.29,2.29,0,0,0,51.76,138.08Z" transform="translate(-23.61 -6.93)"/><path d="M44.9,127.34a2.4,2.4,0,0,0,2.29-1.82,2.36,2.36,0,0,0-1.6-2.75l-2.29-.45a2.24,2.24,0,0,0-1.14,4.34l2.28.46C44.44,127.34,44.67,127.34,44.9,127.34Z" transform="translate(-23.61 -6.93)"/><path d="M46.73,110a2.06,2.06,0,0,0,1.6.68,3.21,3.21,0,0,0,1.37-.45L73.24,93.07a2.18,2.18,0,0,0,.68-2.74,14.49,14.49,0,0,0-1.83-3.2,17.16,17.16,0,0,0-27.65,20.33A23.74,23.74,0,0,0,46.73,110Zm4.11-22.85a12.85,12.85,0,0,1,7.31-2.51,12.45,12.45,0,0,1,10.06,5c.23.23.46.46.46.69L48.33,105c-.23-.23-.23-.46-.46-.46A12.49,12.49,0,0,1,50.84,87.13Z" transform="translate(-23.61 -6.93)"/><path d="M53.36,94.44a2,2,0,0,0,1.82.91,3.17,3.17,0,0,0,1.37-.45A2.45,2.45,0,0,0,57,91.7l-.91-1.37a2.29,2.29,0,1,0-3.66,2.74Z" transform="translate(-23.61 -6.93)"/><path d="M51.76,99.92h0a2.29,2.29,0,0,0,0-4.57H49.24A2.29,2.29,0,0,0,47,97.64a2.15,2.15,0,0,0,2.28,2.28Z" transform="translate(-23.61 -6.93)"/><path d="M59.75,93.3h.69a2.75,2.75,0,0,0,2.28-1.6l.69-2.29a2.24,2.24,0,0,0-4.34-1.14l-.69,2.29A2.22,2.22,0,0,0,59.75,93.3Z" transform="translate(-23.61 -6.93)"/><path d="M26.39,172.59a2.33,2.33,0,1,0-.91,4.57l29.93,6.17h.46a2.22,2.22,0,0,0,2.28-1.83,2.3,2.3,0,0,0-1.82-2.74l-12.8-2.52,4.11-19.65C71,154.08,82.15,132.83,81,93.3,80.32,70,95.4,49.2,95.63,49a2.68,2.68,0,0,0,.23-2.29,2,2,0,0,0-1.6-1.37L44.44,35a1.83,1.83,0,0,0-2,.69,3.16,3.16,0,0,0-.69,2.05c0,.23,5.49,25.14-4.34,46.39-16.68,36.1-14.85,60.09,5.71,71.52L39,175.33ZM89.92,49.2a88.47,88.47,0,0,0-8,15.76,15.08,15.08,0,0,0-8.46-4.79C68.21,59,65,60.62,62,62.22c-2.74,1.37-4.8,2.29-8.68,1.6a11.61,11.61,0,0,1-5.94-3.43,97.56,97.56,0,0,0-.92-20.1Zm-48.45,37a68.12,68.12,0,0,0,5.72-20.33,15.21,15.21,0,0,0,5.48,2.28c5.26,1.15,8.45-.45,11.43-2,2.74-1.37,4.79-2.29,8.68-1.6,3.65.68,5.25,2.74,7.31,4.8l.23.22A71,71,0,0,0,76.66,93.3C77.81,131,67.75,150.19,46.27,152,27.08,142,25.48,120.49,41.47,86.21Z" transform="translate(-23.61 -6.93)"/><path d="M95.4,9.21a2.29,2.29,0,0,0-4.57,0V22.69a2.29,2.29,0,1,0,4.57,0Z" transform="translate(-23.61 -6.93)"/><path d="M73,17.44a2.35,2.35,0,1,0-2.29,4.11l11.66,6.63a2.1,2.1,0,0,0,1.14.22,2.7,2.7,0,0,0,2-1.14,2.31,2.31,0,0,0-.91-3.2Z" transform="translate(-23.61 -6.93)"/><path d="M95.17,35.49a2.06,2.06,0,0,0,0,2.28l40,101.68a5.52,5.52,0,0,0,5.48,3.43,8.45,8.45,0,0,0,2.29-.45l11.19-3.89L161,158l-12.34,4.12a2.37,2.37,0,0,0-1.37,3,2.2,2.2,0,0,0,2,1.6.84.84,0,0,0,.69-.23l28.79-10.06a2.31,2.31,0,1,0-1.6-4.34l-12.34,4.34L158,136.94l11.19-3.88a6.09,6.09,0,0,0,4.12-7.32L140.87,21.55a3.07,3.07,0,0,0-1.6-1.83,3.21,3.21,0,0,0-2.51-.23L97,33.43A5.38,5.38,0,0,0,95.17,35.49Zm72.89,93.23-26.73,9.36c-.92.23-1.83,0-2.06-.45L105.22,51c2.06-2.52,3.66-4.8,8-6.4s7.09-.92,10.28,0c3.43.91,7.32,1.83,13-.23a18.79,18.79,0,0,0,5.71-3.2l27,85.92C169.43,127.57,169,128.49,168.06,128.72ZM137,24.29l3.88,12.11a13.79,13.79,0,0,1-5.71,3.66c-4.34,1.6-7.09.91-10.28,0-3.43-.92-7.32-1.83-13,.23A19.34,19.34,0,0,0,103.4,46L100,37.32Z" transform="translate(-23.61 -6.93)"/><path d="M135.16,71.13l-7.54-3.65a4.19,4.19,0,0,0-5.49,2l-3.65,7.54a5,5,0,0,0-.23,3.2,4.08,4.08,0,0,0,2.06,2.29l7.54,3.65a4.24,4.24,0,0,0,1.82.46,2.92,2.92,0,0,0,1.38-.23,4.07,4.07,0,0,0,2.28-2L137,76.85A4.12,4.12,0,0,0,135.16,71.13Zm-5.71,10.74-6.86-3.2,3.2-6.85,6.85,3.2Z" transform="translate(-23.61 -6.93)"/><path d="M134.47,87.36l1.6,8.22h0A4.16,4.16,0,0,0,140.18,99h.92l8.22-1.6a4.09,4.09,0,0,0,3.2-4.8l-1.6-8.68a4.08,4.08,0,0,0-4.79-3.2l-8.23,1.6A4.2,4.2,0,0,0,134.47,87.36Zm11.88-2.06,1.6,7.54-7.54,1.6-1.6-7.54Z" transform="translate(-23.61 -6.93)"/><path d="M139.73,50.11l-8.46-.45a3.77,3.77,0,0,0-3,1.14,4,4,0,0,0-1.37,3L126.48,62a4,4,0,0,0,3.88,4.35l8.45.45H139a4.16,4.16,0,0,0,2.74-1.14,3.68,3.68,0,0,0,1.38-3l.45-8.45A3.9,3.9,0,0,0,139.73,50.11Zm-1.14,12.11-7.54-.45.45-7.54,7.54.45Z" transform="translate(-23.61 -6.93)"/></svg>