<svg width="152" height="154" viewBox="0 0 152 154" fill="none" xmlns="http://www.w3.org/2000/svg">
<rect width="152" height="154" rx="73" fill="#FDE5EA"/>
<path d="M140.983 80.6059L124.709 58.2616C123.611 56.7512 122.174 55.5191 120.514 54.6641C118.854 53.8092 117.017 53.3552 115.149 53.3386H103.201V46.1693C103.201 44.2679 102.445 42.4444 101.101 41.0998C99.7563 39.7553 97.9327 39 96.0313 39H43.4563C42.8225 39 42.2147 39.2518 41.7665 39.6999C41.3183 40.1481 41.0665 40.756 41.0665 41.3898C41.0665 42.0236 41.3183 42.6314 41.7665 43.0796C42.2147 43.5278 42.8225 43.7795 43.4563 43.7795H96.0313C96.6651 43.7795 97.273 44.0313 97.7211 44.4795C98.1693 44.9277 98.4211 45.5355 98.4211 46.1693V89.1852H21.9484C21.3146 89.1852 20.7067 89.437 20.2585 89.8852C19.8104 90.3333 19.5586 90.9412 19.5586 91.575C19.5586 92.2088 19.8104 92.8167 20.2585 93.2648C20.7067 93.713 21.3146 93.9648 21.9484 93.9648H35.2116V101.134C35.2116 103.036 35.9669 104.859 37.3115 106.204C38.656 107.548 40.4795 108.303 42.3809 108.303H43.4563C43.4318 108.701 43.4318 109.1 43.4563 109.498C43.4563 112.984 44.8411 116.327 47.306 118.792C49.771 121.257 53.1141 122.642 56.6001 122.642C60.086 122.642 63.4292 121.257 65.8941 118.792C68.359 116.327 69.7438 112.984 69.7438 109.498C69.7683 109.1 69.7683 108.701 69.7438 108.303H105.59C105.566 108.701 105.566 109.1 105.59 109.498C105.59 112.984 106.975 116.327 109.44 118.792C111.905 121.257 115.248 122.642 118.734 122.642C122.22 122.642 125.563 121.257 128.028 118.792C130.493 116.327 131.878 112.984 131.878 109.498C131.902 109.1 131.902 108.701 131.878 108.303H134.268C136.169 108.303 137.993 107.548 139.337 106.204C140.682 104.859 141.437 103.036 141.437 101.134V82.0159C141.413 81.5141 141.256 81.0276 140.983 80.6059ZM120.861 61.0815L134.268 79.6261H115.149V58.1182C116.267 58.133 117.365 58.4086 118.356 58.9231C119.348 59.4376 120.206 60.1767 120.861 61.0815ZM56.6001 117.862C54.9458 117.862 53.3287 117.372 51.9532 116.453C50.5777 115.534 49.5056 114.227 48.8726 112.699C48.2395 111.171 48.0738 109.489 48.3966 107.867C48.7193 106.244 49.5159 104.754 50.6857 103.584C51.8554 102.414 53.3458 101.618 54.9683 101.295C56.5908 100.972 58.2726 101.138 59.8009 101.771C61.3293 102.404 62.6356 103.476 63.5546 104.851C64.4737 106.227 64.9643 107.844 64.9643 109.498C64.9643 111.717 64.083 113.844 62.5145 115.413C60.9459 116.981 58.8184 117.862 56.6001 117.862ZM56.6001 96.3545C54.1805 96.3558 51.8085 97.0261 49.7461 98.2913C47.6838 99.5566 46.0115 101.368 44.9141 103.524H42.3809C41.7471 103.524 41.1393 103.272 40.6911 102.824C40.2429 102.376 39.9911 101.768 39.9911 101.134V93.9648H98.4211V103.524H68.2861C67.1887 101.368 65.5164 99.5566 63.454 98.2913C61.3917 97.0261 59.0196 96.3558 56.6001 96.3545ZM118.734 117.862C117.08 117.862 115.463 117.372 114.087 116.453C112.712 115.534 111.64 114.227 111.007 112.699C110.374 111.171 110.208 109.489 110.531 107.867C110.853 106.244 111.65 104.754 112.82 103.584C113.99 102.414 115.48 101.618 117.102 101.295C118.725 100.972 120.407 101.138 121.935 101.771C123.463 102.404 124.77 103.476 125.689 104.851C126.608 106.227 127.098 107.844 127.098 109.498C127.098 111.717 126.217 113.844 124.649 115.413C123.08 116.981 120.952 117.862 118.734 117.862ZM134.268 103.524H130.42C129.321 101.37 127.648 99.5618 125.586 98.299C123.523 97.0362 121.152 96.3679 118.734 96.3679C116.316 96.3679 113.945 97.0362 111.883 98.299C109.82 99.5618 108.147 101.37 107.048 103.524H103.201V58.1182H110.37V82.0159C110.37 82.6497 110.622 83.2576 111.07 83.7057C111.518 84.1539 112.126 84.4057 112.76 84.4057H136.657V101.134C136.657 101.768 136.406 102.376 135.958 102.824C135.509 103.272 134.901 103.524 134.268 103.524Z" fill="#8B2139"/>
<path d="M24.339 43.7795H36.2879C36.9217 43.7795 37.5295 43.5278 37.9777 43.0796C38.4259 42.6314 38.6776 42.0236 38.6776 41.3898C38.6776 40.756 38.4259 40.1481 37.9777 39.6999C37.5295 39.2518 36.9217 39 36.2879 39H24.339C23.7052 39 23.0973 39.2518 22.6492 39.6999C22.201 40.1481 21.9492 40.756 21.9492 41.3898C21.9492 42.0236 22.201 42.6314 22.6492 43.0796C23.0973 43.5278 23.7052 43.7795 24.339 43.7795Z" fill="#8B2139"/>
<path d="M38.6773 53.3385C38.6773 52.7047 38.4255 52.0968 37.9773 51.6487C37.5292 51.2005 36.9213 50.9487 36.2875 50.9487H12.3898C11.756 50.9487 11.1481 51.2005 10.6999 51.6487C10.2518 52.0968 10 52.7047 10 53.3385C10 53.9723 10.2518 54.5802 10.6999 55.0283C11.1481 55.4765 11.756 55.7283 12.3898 55.7283H36.2875C36.9213 55.7283 37.5292 55.4765 37.9773 55.0283C38.4255 54.5802 38.6773 53.9723 38.6773 53.3385Z" fill="#8B2139"/>
<path d="M26.7266 65.2877C26.7266 65.9215 26.9783 66.5294 27.4265 66.9775C27.8747 67.4257 28.4825 67.6775 29.1163 67.6775H43.455C44.0888 67.6775 44.6966 67.4257 45.1448 66.9775C45.593 66.5294 45.8447 65.9215 45.8447 65.2877C45.8447 64.6539 45.593 64.0461 45.1448 63.5979C44.6966 63.1497 44.0888 62.8979 43.455 62.8979H29.1163C28.4825 62.8979 27.8747 63.1497 27.4265 63.5979C26.9783 64.0461 26.7266 64.6539 26.7266 65.2877Z" fill="#8B2139"/>
<path d="M50.6248 82.0159C51.2586 82.0159 51.8664 81.7641 52.3146 81.3159C52.7628 80.8678 53.0146 80.2599 53.0146 79.6261C53.0146 78.9923 52.7628 78.3844 52.3146 77.9363C51.8664 77.4881 51.2586 77.2363 50.6248 77.2363H19.5577C18.9239 77.2363 18.3161 77.4881 17.8679 77.9363C17.4197 78.3844 17.168 78.9923 17.168 79.6261C17.168 80.2599 17.4197 80.8678 17.8679 81.3159C18.3161 81.7641 18.9239 82.0159 19.5577 82.0159H50.6248Z" fill="#8B2139"/>
<path d="M21.9506 67.6775C22.5844 67.6775 23.1922 67.4257 23.6404 66.9775C24.0886 66.5294 24.3403 65.9215 24.3403 65.2877C24.3403 64.6539 24.0886 64.0461 23.6404 63.5979C23.1922 63.1497 22.5844 62.8979 21.9506 62.8979H17.171C16.5372 62.8979 15.9294 63.1497 15.4812 63.5979C15.033 64.0461 14.7812 64.6539 14.7812 65.2877C14.7812 65.9215 15.033 66.5294 15.4812 66.9775C15.9294 67.4257 16.5372 67.6775 17.171 67.6775H21.9506Z" fill="#8B2139"/>
</svg>
